<svg xmlns="http://www.w3.org/2000/svg" xmlns:xlink="http://www.w3.org/1999/xlink" width="550" height="300" viewBox="0 0 550 300">
  <defs>
    <linearGradient id="linear-gradient" y1="0.5" x2="1" y2="0.5" gradientUnits="objectBoundingBox">
      <stop offset="0.094" stop-color="#b8b8b8"/>
      <stop offset="0.962" stop-color="#00001f"/>
    </linearGradient>
    <linearGradient id="linear-gradient-2" x1="33.236" y1="1.236" x2="34.041" y2="0.419" gradientUnits="objectBoundingBox">
      <stop offset="0" stop-color="#fff"/>
      <stop offset="0.142" stop-color="#faf9f9"/>
      <stop offset="0.323" stop-color="#edebe9"/>
      <stop offset="0.525" stop-color="#d8d4cf"/>
      <stop offset="0.665" stop-color="#c6c0b9"/>
    </linearGradient>
    <clipPath id="clip-Control-manage-course-content">
      <rect width="550" height="300"/>
    </clipPath>
  </defs>
  <g id="Control-manage-course-content" clip-path="url(#clip-Control-manage-course-content)">
    <g id="Group_12169" data-name="Group 12169" transform="translate(7.273 1.001)">
      <path id="Path_30047" data-name="Path 30047" d="M317.056,310.563c6.575-18.694,16.929-24.382,26.777-36.374,12.027-14.645,20.14-25.29,17.017-44.127-5.1-30.781-7.288-107.547,72.617-97.513,28.64,3.6,51.272,25.98,67.737,48.322,14.01,19.01,39.211,20.687,59.5,25.119,24.923,5.446,50.311,13.672,73.37,25.725,47.49,24.823,61.674,60.508,59.738,106.165-.586,13.795-2.5,35.522-25.349,60.947-30.84,34.317-75.654,38.912-129.593,23.152-12.346-3.607-24.016-9.264-36.16-13.524a167.877,167.877,0,0,0-39.028-8.643c-30.978-3.053-63.091,2.471-92.81-6.962A97.641,97.641,0,0,1,329.36,366.6c-14.194-15.162-19.243-36.3-12.3-56.033" transform="translate(-313.971 -131.652)" fill="#d39e82" opacity="0.33"/>
      <g id="Group_11462" data-name="Group 11462" transform="translate(15.085 9.289)">
        <g id="Group_1007" data-name="Group 1007" transform="translate(112.199 79.456)">
          <path id="Path_709" data-name="Path 709" d="M620.964,330.3l-1.518-1.518a.918.918,0,0,0-1.139-.136q-.555.352-1.132.656a.918.918,0,0,0-.449,1.052l.554,2.071a.928.928,0,0,1-.656,1.138l-3.805,1.02a.93.93,0,0,1-1.138-.656l-.557-2.077a.918.918,0,0,0-.916-.687c-.435.018-.872.018-1.307,0a.918.918,0,0,0-.916.687l-.557,2.075a.929.929,0,0,1-1.137.657l-3.806-1.02a.929.929,0,0,1-.656-1.138l.554-2.07a.919.919,0,0,0-.448-1.053q-.577-.3-1.133-.656a.92.92,0,0,0-1.139.136l-1.518,1.518a.929.929,0,0,1-1.312,0l-2.787-2.787a.929.929,0,0,1,0-1.313l1.518-1.518a.92.92,0,0,0,.136-1.139c-.236-.37-.455-.749-.656-1.132a.918.918,0,0,0-1.053-.449l-2.07.554a.93.93,0,0,1-1.138-.656l-1.02-3.806a.929.929,0,0,1,.656-1.137l2.075-.557a.919.919,0,0,0,.688-.916c-.018-.435-.018-.872,0-1.308a.918.918,0,0,0-.688-.915l-2.075-.557a.929.929,0,0,1-.656-1.137l1.02-3.806a.93.93,0,0,1,1.138-.657l2.07.555a.921.921,0,0,0,1.053-.449q.3-.577.656-1.132a.92.92,0,0,0-.136-1.139l-1.518-1.518a.93.93,0,0,1,0-1.314l2.787-2.785a.926.926,0,0,1,1.313,0l1.518,1.517a.92.92,0,0,0,1.139.136q.556-.353,1.132-.657a.918.918,0,0,0,.449-1.052l-.554-2.07a.928.928,0,0,1,.656-1.138l3.806-1.02a.929.929,0,0,1,1.137.656l.557,2.075a.919.919,0,0,0,.916.688q.654-.026,1.308,0a.921.921,0,0,0,.916-.688l.555-2.075a.93.93,0,0,1,1.138-.656l3.805,1.02a.927.927,0,0,1,.656,1.137l-.554,2.071a.918.918,0,0,0,.449,1.052c.383.2.762.422,1.132.657a.92.92,0,0,0,1.139-.136l1.518-1.517a.928.928,0,0,1,1.314,0l2.785,2.785a.929.929,0,0,1,0,1.314l-1.518,1.518a.92.92,0,0,0-.136,1.139q.353.555.657,1.132a.917.917,0,0,0,1.052.449l2.07-.554a.928.928,0,0,1,1.138.656l1.02,3.805a.93.93,0,0,1-.656,1.138l-2.075.555a.919.919,0,0,0-.688.916q.026.654,0,1.308a.918.918,0,0,0,.688.916l2.075.557a.928.928,0,0,1,.656,1.137l-1.02,3.806a.928.928,0,0,1-1.138.656l-2.07-.554a.92.92,0,0,0-1.053.449c-.2.383-.422.762-.656,1.132a.92.92,0,0,0,.136,1.139l1.518,1.518a.927.927,0,0,1,0,1.313l-2.785,2.787A.93.93,0,0,1,620.964,330.3ZM618.1,306.247a12.086,12.086,0,1,0,0,17.093A12.088,12.088,0,0,0,618.1,306.247Z" transform="translate(-563.188 -190.207)" fill="#adc5d1"/>
          <path id="Path_710" data-name="Path 710" d="M356.967,250.174h3.683a1.579,1.579,0,0,0,1.548-1.216q.246-1.1.577-2.171a1.576,1.576,0,0,0-.734-1.821l-3.185-1.84a1.593,1.593,0,0,1-.584-2.177l3.381-5.857a1.594,1.594,0,0,1,2.177-.582l3.195,1.843a1.576,1.576,0,0,0,1.945-.278q.763-.824,1.587-1.587a1.578,1.578,0,0,0,.279-1.946l-1.845-3.193a1.594,1.594,0,0,1,.584-2.177l5.856-3.381a1.593,1.593,0,0,1,2.177.584l1.839,3.185a1.578,1.578,0,0,0,1.822.734q1.069-.331,2.171-.577a1.58,1.58,0,0,0,1.218-1.548v-3.683a1.593,1.593,0,0,1,1.594-1.594h6.762a1.594,1.594,0,0,1,1.594,1.594v3.683a1.577,1.577,0,0,0,1.218,1.547q1.1.248,2.171.578a1.578,1.578,0,0,0,1.822-.734l1.839-3.185a1.593,1.593,0,0,1,2.177-.584l5.856,3.381a1.6,1.6,0,0,1,.584,2.177l-1.845,3.193a1.58,1.58,0,0,0,.278,1.946q.826.761,1.588,1.587a1.578,1.578,0,0,0,1.947.278l3.193-1.843a1.592,1.592,0,0,1,2.176.582l3.382,5.857a1.6,1.6,0,0,1-.584,2.177l-3.185,1.839a1.578,1.578,0,0,0-.734,1.822q.33,1.069.577,2.171a1.579,1.579,0,0,0,1.548,1.216H422.3a1.594,1.594,0,0,1,1.594,1.594v6.763a1.594,1.594,0,0,1-1.594,1.594h-3.683a1.58,1.58,0,0,0-1.548,1.218q-.246,1.1-.577,2.171a1.576,1.576,0,0,0,.734,1.821l3.185,1.84a1.6,1.6,0,0,1,.584,2.177l-3.382,5.856a1.594,1.594,0,0,1-2.176.584l-3.195-1.845a1.577,1.577,0,0,0-1.945.279q-.763.824-1.588,1.587a1.578,1.578,0,0,0-.278,1.947l1.845,3.193a1.594,1.594,0,0,1-.584,2.176l-5.856,3.382a1.6,1.6,0,0,1-2.177-.584l-1.839-3.186a1.579,1.579,0,0,0-1.822-.732q-1.069.33-2.171.577a1.579,1.579,0,0,0-1.218,1.548v3.683a1.594,1.594,0,0,1-1.594,1.594h-6.762a1.593,1.593,0,0,1-1.594-1.594v-3.684a1.578,1.578,0,0,0-1.218-1.547q-1.1-.246-2.171-.577a1.579,1.579,0,0,0-1.822.732l-1.839,3.186a1.6,1.6,0,0,1-2.177.584l-5.856-3.382a1.593,1.593,0,0,1-.584-2.176l1.845-3.194a1.578,1.578,0,0,0-.279-1.946q-.824-.761-1.587-1.587a1.576,1.576,0,0,0-1.945-.278l-3.195,1.845a1.6,1.6,0,0,1-2.177-.584l-3.381-5.856a1.593,1.593,0,0,1,.584-2.177l3.185-1.84a1.577,1.577,0,0,0,.734-1.822q-.331-1.067-.577-2.17a1.58,1.58,0,0,0-1.548-1.218h-3.683a1.594,1.594,0,0,1-1.594-1.594v-6.763A1.594,1.594,0,0,1,356.967,250.174Zm32.666,25.719a20.744,20.744,0,1,0-20.743-20.743A20.744,20.744,0,0,0,389.633,275.893Z" transform="translate(-23.717 -202.939)" fill="#adc5d1"/>
          <path id="Path_711" data-name="Path 711" d="M643.983,235.891l-1.3-1.3a.789.789,0,0,0-.977-.117q-.476.3-.972.564a.79.79,0,0,0-.384.9l.476,1.777a.8.8,0,0,1-.564.976l-3.266.875a.8.8,0,0,1-.976-.564l-.477-1.781a.788.788,0,0,0-.786-.589q-.561.021-1.121,0a.791.791,0,0,0-.788.589L632.367,239a.8.8,0,0,1-.976.564l-3.265-.875a.8.8,0,0,1-.564-.976l.476-1.777a.789.789,0,0,0-.386-.9q-.494-.26-.972-.564a.789.789,0,0,0-.977.117l-1.3,1.3a.8.8,0,0,1-1.127,0l-2.391-2.391a.8.8,0,0,1,0-1.127l1.3-1.3a.789.789,0,0,0,.117-.977q-.3-.476-.564-.971a.789.789,0,0,0-.9-.386l-1.777.476a.8.8,0,0,1-.976-.564l-.874-3.265a.8.8,0,0,1,.563-.976l1.781-.477a.788.788,0,0,0,.589-.786c-.014-.374-.014-.749,0-1.123a.788.788,0,0,0-.589-.786l-1.781-.477a.8.8,0,0,1-.564-.976l.875-3.266a.8.8,0,0,1,.976-.564l1.777.476a.789.789,0,0,0,.9-.384q.26-.5.564-.971a.788.788,0,0,0-.117-.977l-1.3-1.3a.8.8,0,0,1,0-1.127l2.391-2.391a.8.8,0,0,1,1.127,0l1.3,1.3a.788.788,0,0,0,.977.116q.476-.3.972-.564a.788.788,0,0,0,.386-.9l-.476-1.775a.8.8,0,0,1,.564-.976l3.266-.875a.8.8,0,0,1,.975.564l.478,1.781a.789.789,0,0,0,.786.589q.561-.023,1.121,0a.789.789,0,0,0,.786-.589l.477-1.781a.8.8,0,0,1,.976-.564l3.266.875a.8.8,0,0,1,.564.976l-.476,1.775a.787.787,0,0,0,.384.9q.494.262.972.565a.788.788,0,0,0,.977-.117l1.3-1.3a.8.8,0,0,1,1.126,0l2.391,2.391a.8.8,0,0,1,0,1.127l-1.3,1.3a.787.787,0,0,0-.116.977q.3.476.564.971a.788.788,0,0,0,.9.386l1.778-.477a.8.8,0,0,1,.975.564l.875,3.266a.8.8,0,0,1-.564.976l-1.781.477a.789.789,0,0,0-.589.786q.023.561,0,1.121a.792.792,0,0,0,.589.788l1.781.477a.8.8,0,0,1,.564.976l-.875,3.266a.8.8,0,0,1-.976.562l-1.776-.476a.787.787,0,0,0-.9.386q-.262.494-.564.971a.787.787,0,0,0,.116.977l1.3,1.3a.8.8,0,0,1,0,1.127l-2.391,2.391A.8.8,0,0,1,643.983,235.891Zm-2.456-20.642a10.372,10.372,0,1,0,0,14.668A10.373,10.373,0,0,0,641.527,215.248Z" transform="translate(-617.181 -205.572)" fill="#adc5d1"/>
        </g>
        <g id="Group_1008" data-name="Group 1008" transform="translate(142.893 38.007)">
          <rect id="Rectangle_57" data-name="Rectangle 57" width="257.471" height="170.399" rx="6" fill="#25353a"/>
          <rect id="Rectangle_58" data-name="Rectangle 58" width="155.977" height="246.787" rx="3" transform="translate(252.129 5.342) rotate(90)" fill="#fff"/>
          <rect id="Rectangle_59" data-name="Rectangle 59" width="62.498" height="21.189" transform="translate(97.486 170.399)" fill="#1c282b"/>
          <path id="Path_712" data-name="Path 712" d="M466.688,344.286h83.064a5.3,5.3,0,0,0,5.3-5.3h0a5.3,5.3,0,0,0-5.3-5.3H466.688a5.3,5.3,0,0,0-5.3,5.3h0A5.3,5.3,0,0,0,466.688,344.286Z" transform="translate(-379.484 -142.103)" fill="#25353a"/>
        </g>
        <g id="Group_919" data-name="Group 919" transform="translate(149.515 43.168)">
          <g id="Group_865" data-name="Group 865" transform="translate(0 0)">
            <path id="Rectangle_50" data-name="Rectangle 50" d="M5.08,0H240.392a5.081,5.081,0,0,1,5.081,5.081V151.2a5.081,5.081,0,0,1-5.081,5.081H5.081A5.081,5.081,0,0,1,0,151.2V5.08A5.08,5.08,0,0,1,5.08,0Z" fill="#f7cc7f" style="mix-blend-mode: hue;isolation: isolate"/>
          </g>
          <g id="Group_880" data-name="Group 880" transform="translate(10.851 10.193)">
            <g id="Group_872" data-name="Group 872" transform="translate(0)">
              <g id="Group_866" data-name="Group 866">
                <path id="Path_603" data-name="Path 603" d="M665.578,317.027H465.567c-2.378,0-4.309-.859-4.309-1.92h0c0-1.06,1.931-1.919,4.309-1.919H665.578c2.378,0,4.307.859,4.307,1.919h0C669.885,316.168,667.956,317.027,665.578,317.027Z" transform="translate(-461.258 -313.188)" fill="#fbead5"/>
              </g>
              <g id="Group_867" data-name="Group 867" transform="translate(0 10.218)">
                <path id="Path_604" data-name="Path 604" d="M665.578,325.591H465.567c-2.378,0-4.309-.86-4.309-1.92h0c0-1.06,1.931-1.92,4.309-1.92H665.578c2.378,0,4.307.86,4.307,1.92h0C669.885,324.73,667.956,325.591,665.578,325.591Z" transform="translate(-461.258 -321.751)" fill="#fbead5"/>
              </g>
              <g id="Group_868" data-name="Group 868" transform="translate(0 20.437)">
                <path id="Path_605" data-name="Path 605" d="M665.578,334.154H465.567c-2.378,0-4.309-.859-4.309-1.919h0c0-1.061,1.931-1.92,4.309-1.92H665.578c2.378,0,4.307.859,4.307,1.92h0C669.885,333.294,667.956,334.154,665.578,334.154Z" transform="translate(-461.258 -330.315)" fill="#fbead5"/>
              </g>
              <g id="Group_869" data-name="Group 869" transform="translate(0 30.656)">
                <path id="Path_606" data-name="Path 606" d="M665.578,342.718H465.567c-2.378,0-4.309-.859-4.309-1.92h0c0-1.06,1.931-1.919,4.309-1.919H665.578c2.378,0,4.307.859,4.307,1.919h0C669.885,341.858,667.956,342.718,665.578,342.718Z" transform="translate(-461.258 -338.879)" fill="#fbead5"/>
              </g>
              <g id="Group_870" data-name="Group 870" transform="translate(0 40.873)">
                <path id="Path_607" data-name="Path 607" d="M665.578,351.281H465.567c-2.378,0-4.309-.859-4.309-1.919h0c0-1.061,1.931-1.92,4.309-1.92H665.578c2.378,0,4.307.859,4.307,1.92h0C669.885,350.421,667.956,351.281,665.578,351.281Z" transform="translate(-461.258 -347.442)" fill="#fbead5"/>
              </g>
              <g id="Group_871" data-name="Group 871" transform="translate(0 51.092)">
                <path id="Path_608" data-name="Path 608" d="M665.578,359.845H465.567c-2.378,0-4.309-.859-4.309-1.92h0c0-1.06,1.931-1.919,4.309-1.919H665.578c2.378,0,4.307.859,4.307,1.919h0C669.885,358.986,667.956,359.845,665.578,359.845Z" transform="translate(-461.258 -356.006)" fill="#fbead5"/>
              </g>
            </g>
            <g id="Group_879" data-name="Group 879" transform="translate(220.086)">
              <g id="Group_873" data-name="Group 873" transform="translate(0)">
                <path id="Path_609" data-name="Path 609" d="M450.409,313.188h0a1.842,1.842,0,0,0-1.842,1.842v.154a1.842,1.842,0,0,0,1.842,1.842h0a1.842,1.842,0,0,0,1.842-1.842v-.154A1.842,1.842,0,0,0,450.409,313.188Z" transform="translate(-448.567 -313.188)" fill="#fbead5"/>
              </g>
              <g id="Group_874" data-name="Group 874" transform="translate(0 10.218)">
                <path id="Path_610" data-name="Path 610" d="M450.409,321.751h0a1.843,1.843,0,0,0-1.842,1.842v.155a1.842,1.842,0,0,0,1.842,1.842h0a1.842,1.842,0,0,0,1.842-1.842v-.155A1.843,1.843,0,0,0,450.409,321.751Z" transform="translate(-448.567 -321.751)" fill="#fbead5"/>
              </g>
              <g id="Group_875" data-name="Group 875" transform="translate(0 20.437)">
                <path id="Path_611" data-name="Path 611" d="M450.409,330.315h0a1.842,1.842,0,0,0-1.842,1.842v.154a1.842,1.842,0,0,0,1.842,1.842h0a1.842,1.842,0,0,0,1.842-1.842v-.154A1.842,1.842,0,0,0,450.409,330.315Z" transform="translate(-448.567 -330.315)" fill="#fbead5"/>
              </g>
              <g id="Group_876" data-name="Group 876" transform="translate(0 30.656)">
                <path id="Path_612" data-name="Path 612" d="M450.409,338.879h0a1.842,1.842,0,0,0-1.842,1.841v.155a1.842,1.842,0,0,0,1.842,1.842h0a1.842,1.842,0,0,0,1.842-1.842v-.155A1.842,1.842,0,0,0,450.409,338.879Z" transform="translate(-448.567 -338.879)" fill="#fbead5"/>
              </g>
              <g id="Group_877" data-name="Group 877" transform="translate(0 40.873)">
                <path id="Path_613" data-name="Path 613" d="M450.409,347.442h0a1.842,1.842,0,0,0-1.842,1.842v.155a1.842,1.842,0,0,0,1.842,1.841h0a1.842,1.842,0,0,0,1.842-1.841v-.155A1.842,1.842,0,0,0,450.409,347.442Z" transform="translate(-448.567 -347.442)" fill="#fbead5"/>
              </g>
              <g id="Group_878" data-name="Group 878" transform="translate(0 51.092)">
                <path id="Path_614" data-name="Path 614" d="M450.409,356.006h0a1.842,1.842,0,0,0-1.842,1.842V358a1.842,1.842,0,0,0,1.842,1.842h0A1.842,1.842,0,0,0,452.252,358v-.154A1.842,1.842,0,0,0,450.409,356.006Z" transform="translate(-448.567 -356.006)" fill="#fbead5"/>
              </g>
            </g>
          </g>
          <g id="Group_918" data-name="Group 918" transform="translate(10.851 112.276)">
            <g id="Group_881" data-name="Group 881" transform="translate(0 0)">
              <rect id="Rectangle_51" data-name="Rectangle 51" width="223.77" height="36.807" rx="5.15" fill="#0050fe" opacity="0"/>
            </g>
            <g id="Group_892" data-name="Group 892" transform="translate(2.965 0.7)">
              <g id="Group_883" data-name="Group 883">
                <g id="Group_882" data-name="Group 882">
                  <path id="Path_615" data-name="Path 615" d="M542.4,386.2a17.7,17.7,0,1,0-17.7,17.7A17.724,17.724,0,0,0,542.4,386.2Zm-6,0a11.7,11.7,0,1,1-11.7-11.7A11.717,11.717,0,0,1,536.4,386.2Z" transform="translate(-506.997 -368.493)" fill="#fae0b2"/>
                </g>
              </g>
              <g id="Group_885" data-name="Group 885" transform="translate(16.252 7.301)">
                <g id="Group_884" data-name="Group 884" transform="translate(0)">
                  <path id="Path_616" data-name="Path 616" d="M522.1,383.613a1.4,1.4,0,0,1-1.4-1.4v-6.2a1.4,1.4,0,0,1,2.8,0v6.2A1.4,1.4,0,0,1,522.1,383.613Z" transform="translate(-520.703 -374.612)" fill="#fae0b2"/>
                </g>
              </g>
              <g id="Group_887" data-name="Group 887" transform="translate(16.252 19.036)">
                <g id="Group_886" data-name="Group 886" transform="translate(0)">
                  <path id="Path_617" data-name="Path 617" d="M522.1,393.448a1.4,1.4,0,0,1-1.4-1.4v-6.2a1.4,1.4,0,1,1,2.8,0v6.2A1.4,1.4,0,0,1,522.1,393.448Z" transform="translate(-520.703 -384.446)" fill="#fae0b2"/>
                </g>
              </g>
              <g id="Group_889" data-name="Group 889" transform="translate(7.285 16.269)">
                <g id="Group_888" data-name="Group 888">
                  <path id="Path_618" data-name="Path 618" d="M530.623,384.927h-6.2a1.4,1.4,0,0,1,0-2.8h6.2a1.4,1.4,0,0,1,0,2.8Z" transform="translate(-523.022 -382.127)" fill="#fae0b2"/>
                </g>
              </g>
              <g id="Group_891" data-name="Group 891" transform="translate(19.019 16.269)">
                <g id="Group_890" data-name="Group 890" transform="translate(0)">
                  <path id="Path_619" data-name="Path 619" d="M520.788,384.927h-6.2a1.4,1.4,0,1,1,0-2.8h6.2a1.4,1.4,0,1,1,0,2.8Z" transform="translate(-513.187 -382.127)" fill="#fae0b2"/>
                </g>
              </g>
            </g>
            <g id="Group_903" data-name="Group 903" transform="translate(105.095 0.7)">
              <g id="Group_894" data-name="Group 894" transform="translate(0)">
                <g id="Group_893" data-name="Group 893">
                  <path id="Path_620" data-name="Path 620" d="M510.9,386.2a17.7,17.7,0,1,0-17.7,17.7A17.724,17.724,0,0,0,510.9,386.2Zm-6,0a11.7,11.7,0,1,1-11.7-11.7A11.717,11.717,0,0,1,504.9,386.2Z" transform="translate(-475.495 -368.493)" fill="#fae0b2"/>
                </g>
              </g>
              <g id="Group_896" data-name="Group 896" transform="translate(16.252 7.301)">
                <g id="Group_895" data-name="Group 895" transform="translate(0)">
                  <path id="Path_621" data-name="Path 621" d="M490.6,383.613a1.4,1.4,0,0,1-1.4-1.4v-6.2a1.4,1.4,0,0,1,2.8,0v6.2A1.4,1.4,0,0,1,490.6,383.613Z" transform="translate(-489.201 -374.612)" fill="#fae0b2"/>
                </g>
              </g>
              <g id="Group_898" data-name="Group 898" transform="translate(16.252 19.036)">
                <g id="Group_897" data-name="Group 897" transform="translate(0)">
                  <path id="Path_622" data-name="Path 622" d="M490.6,393.448a1.4,1.4,0,0,1-1.4-1.4v-6.2a1.4,1.4,0,1,1,2.8,0v6.2A1.4,1.4,0,0,1,490.6,393.448Z" transform="translate(-489.201 -384.446)" fill="#fae0b2"/>
                </g>
              </g>
              <g id="Group_900" data-name="Group 900" transform="translate(7.285 16.269)">
                <g id="Group_899" data-name="Group 899">
                  <path id="Path_623" data-name="Path 623" d="M499.121,384.927h-6.2a1.4,1.4,0,0,1,0-2.8h6.2a1.4,1.4,0,0,1,0,2.8Z" transform="translate(-491.52 -382.127)" fill="#fae0b2"/>
                </g>
              </g>
              <g id="Group_902" data-name="Group 902" transform="translate(19.019 16.269)">
                <g id="Group_901" data-name="Group 901" transform="translate(0)">
                  <path id="Path_624" data-name="Path 624" d="M489.286,384.927h-6.2a1.4,1.4,0,1,1,0-2.8h6.2a1.4,1.4,0,1,1,0,2.8Z" transform="translate(-481.685 -382.127)" fill="#fae0b2"/>
                </g>
              </g>
            </g>
            <g id="Group_907" data-name="Group 907" transform="translate(195.564 5.067)">
              <g id="Group_904" data-name="Group 904" transform="translate(0 0)">
                <rect id="Rectangle_52" data-name="Rectangle 52" width="25.211" height="6.667" rx="1.257" fill="#fae0b2"/>
              </g>
              <g id="Group_906" data-name="Group 906" transform="translate(0.83 2.191)">
                <g id="Group_905" data-name="Group 905">
                  <path id="Path_625" data-name="Path 625" d="M457.38,376.274a3.3,3.3,0,0,1-1.388-.307,6.17,6.17,0,0,0-2.593-.536H452.28a.3.3,0,1,1,0-.6H453.4a6.736,6.736,0,0,1,2.844.592,2.689,2.689,0,0,0,3-.507,3.292,3.292,0,0,1,4.57-.006l.006.006a2.693,2.693,0,0,0,3.744,0,3.286,3.286,0,0,1,3.883-.513,3.182,3.182,0,0,0,1.548.428h1.986a.3.3,0,1,1,0,.6H473a3.8,3.8,0,0,1-1.838-.5,2.687,2.687,0,0,0-3.176.419,3.292,3.292,0,0,1-4.57.006l-.007-.006a2.693,2.693,0,0,0-3.744,0A3.286,3.286,0,0,1,457.38,376.274Z" transform="translate(-451.979 -373.99)" fill="#fae0b2"/>
                </g>
              </g>
            </g>
            <g id="Group_912" data-name="Group 912" transform="translate(195.564 14.902)">
              <g id="Group_908" data-name="Group 908" transform="translate(0 16.235)">
                <path id="Path_626" data-name="Path 626" d="M473.907,396.068H459.075a1.033,1.033,0,0,1-1.033-1.033h0A1.034,1.034,0,0,1,459.075,394h14.832a1.034,1.034,0,0,1,1.035,1.033h0A1.033,1.033,0,0,1,473.907,396.068Z" transform="translate(-458.042 -394.001)" fill="#fae0b2"/>
              </g>
              <g id="Group_909" data-name="Group 909" transform="translate(0 10.824)">
                <path id="Path_627" data-name="Path 627" d="M473.907,391.533H459.075a1.034,1.034,0,0,1-1.033-1.033h0a1.034,1.034,0,0,1,1.033-1.033h14.832a1.034,1.034,0,0,1,1.035,1.033h0A1.034,1.034,0,0,1,473.907,391.533Z" transform="translate(-458.042 -389.466)" fill="#fae0b2"/>
              </g>
              <g id="Group_910" data-name="Group 910" transform="translate(0 5.411)">
                <path id="Path_628" data-name="Path 628" d="M473.907,387H459.075a1.034,1.034,0,0,1-1.033-1.033h0a1.034,1.034,0,0,1,1.033-1.035h14.832a1.034,1.034,0,0,1,1.035,1.035h0A1.034,1.034,0,0,1,473.907,387Z" transform="translate(-458.042 -384.93)" fill="#fae0b2"/>
              </g>
              <g id="Group_911" data-name="Group 911" transform="translate(0)">
                <path id="Path_629" data-name="Path 629" d="M473.907,382.462H459.075a1.034,1.034,0,0,1-1.033-1.033h0a1.034,1.034,0,0,1,1.033-1.033h14.832a1.034,1.034,0,0,1,1.035,1.033h0A1.034,1.034,0,0,1,473.907,382.462Z" transform="translate(-458.042 -380.395)" fill="#fae0b2"/>
              </g>
            </g>
            <g id="Group_917" data-name="Group 917" transform="translate(217.164 14.902)">
              <g id="Group_913" data-name="Group 913" transform="translate(0 16.235)">
                <path id="Path_630" data-name="Path 630" d="M453.409,394h-.033a1.034,1.034,0,0,0-1.033,1.033h0a1.033,1.033,0,0,0,1.033,1.033h.033a1.033,1.033,0,0,0,1.033-1.033h0A1.034,1.034,0,0,0,453.409,394Z" transform="translate(-452.343 -394.001)" fill="#fae0b2"/>
              </g>
              <g id="Group_914" data-name="Group 914" transform="translate(0 10.824)">
                <path id="Path_631" data-name="Path 631" d="M453.409,389.466h-.033a1.034,1.034,0,0,0-1.033,1.033h0a1.034,1.034,0,0,0,1.033,1.033h.033a1.034,1.034,0,0,0,1.033-1.033h0A1.034,1.034,0,0,0,453.409,389.466Z" transform="translate(-452.343 -389.466)" fill="#fae0b2"/>
              </g>
              <g id="Group_915" data-name="Group 915" transform="translate(0 5.411)">
                <path id="Path_632" data-name="Path 632" d="M453.409,384.93h-.033a1.034,1.034,0,0,0-1.033,1.035h0A1.034,1.034,0,0,0,453.376,387h.033a1.034,1.034,0,0,0,1.033-1.033h0A1.034,1.034,0,0,0,453.409,384.93Z" transform="translate(-452.343 -384.93)" fill="#fae0b2"/>
              </g>
              <g id="Group_916" data-name="Group 916" transform="translate(0)">
                <path id="Path_633" data-name="Path 633" d="M453.409,380.395h-.033a1.034,1.034,0,0,0-1.033,1.033h0a1.034,1.034,0,0,0,1.033,1.033h.033a1.034,1.034,0,0,0,1.033-1.033h0A1.034,1.034,0,0,0,453.409,380.395Z" transform="translate(-452.343 -380.395)" fill="#fae0b2"/>
              </g>
            </g>
          </g>
        </g>
        <g id="Group_1015" data-name="Group 1015" transform="translate(272.063 69.005)">
          <rect id="Rectangle_60" data-name="Rectangle 60" width="113.553" height="77.753" rx="5" transform="translate(0)" fill="#e89b71"/>
          <path id="Rectangle_61" data-name="Rectangle 61" d="M5,0H108.553a5,5,0,0,1,5,5v8.848a0,0,0,0,1,0,0H0a0,0,0,0,1,0,0V5A5,5,0,0,1,5,0Z" transform="translate(0)" fill="#d87448"/>
          <g id="Group_1014" data-name="Group 1014" transform="translate(5.28 20.858)">
            <g id="Group_1013" data-name="Group 1013" transform="translate(0)">
              <g id="Group_1009" data-name="Group 1009" transform="translate(23.974)">
                <line id="Line_1" data-name="Line 1" x1="7.27" transform="translate(67.162)" fill="none" stroke="#fff" stroke-linecap="round" stroke-linejoin="round" stroke-width="2"/>
                <line id="Line_2" data-name="Line 2" x1="28.561" transform="translate(45.871 4.414)" fill="none" stroke="#fff" stroke-linecap="round" stroke-linejoin="round" stroke-width="2"/>
                <line id="Line_3" data-name="Line 3" x1="21.724" transform="translate(20.079 4.414)" fill="none" stroke="#fff" stroke-linecap="round" stroke-linejoin="round" stroke-width="2"/>
                <line id="Line_4" data-name="Line 4" x1="14.281" transform="translate(0 4.414)" fill="none" stroke="#fff" stroke-linecap="round" stroke-linejoin="round" stroke-width="2"/>
              </g>
              <g id="Group_1010" data-name="Group 1010" transform="translate(0 12.463)">
                <line id="Line_5" data-name="Line 5" x1="7.27" transform="translate(91.137)" fill="none" stroke="#fff" stroke-linecap="round" stroke-linejoin="round" stroke-width="2"/>
                <line id="Line_6" data-name="Line 6" x1="31.931" transform="translate(66.475 4.414)" fill="none" stroke="#fff" stroke-linecap="round" stroke-linejoin="round" stroke-width="2"/>
                <line id="Line_7" data-name="Line 7" x1="24.287" transform="translate(37.64 4.414)" fill="none" stroke="#fff" stroke-linecap="round" stroke-linejoin="round" stroke-width="2"/>
                <line id="Line_8" data-name="Line 8" x1="31.157" transform="translate(0 4.414)" fill="none" stroke="#fff" stroke-linecap="round" stroke-linejoin="round" stroke-width="2"/>
              </g>
              <g id="Group_1011" data-name="Group 1011" transform="translate(12.463 24.926)">
                <line id="Line_9" data-name="Line 9" x1="7.27" transform="translate(78.673)" fill="none" stroke="#fff" stroke-linecap="round" stroke-linejoin="round" stroke-width="2"/>
                <line id="Line_10" data-name="Line 10" x1="28.561" transform="translate(57.382 4.414)" fill="none" stroke="#fff" stroke-linecap="round" stroke-linejoin="round" stroke-width="2"/>
                <line id="Line_11" data-name="Line 11" x1="13.094" transform="translate(40.22 4.414)" fill="none" stroke="#fff" stroke-linecap="round" stroke-linejoin="round" stroke-width="2"/>
                <line id="Line_12" data-name="Line 12" x1="34.421" transform="translate(0 4.414)" fill="none" stroke="#fff" stroke-linecap="round" stroke-linejoin="round" stroke-width="2"/>
              </g>
              <g id="Group_1012" data-name="Group 1012" transform="translate(44.054 37.389)">
                <line id="Line_13" data-name="Line 13" x1="7.27" transform="translate(47.083)" fill="none" stroke="#fff" stroke-linecap="round" stroke-linejoin="round" stroke-width="2"/>
                <line id="Line_14" data-name="Line 14" x1="28.561" transform="translate(25.792 4.414)" fill="none" stroke="#fff" stroke-linecap="round" stroke-linejoin="round" stroke-width="2"/>
                <line id="Line_15" data-name="Line 15" x1="21.724" transform="translate(0 4.414)" fill="none" stroke="#fff" stroke-linecap="round" stroke-linejoin="round" stroke-width="2"/>
              </g>
            </g>
          </g>
        </g>
        <g id="Group_1018" data-name="Group 1018" transform="translate(160.255 106.918)">
          <rect id="Rectangle_62" data-name="Rectangle 62" width="81.929" height="64.665" rx="5.492" fill="#f8e6da"/>
          <g id="Group_1016" data-name="Group 1016" transform="translate(21.637 4.373)">
            <circle id="Ellipse_8" data-name="Ellipse 8" cx="13.46" cy="13.46" r="13.46" transform="translate(19.035 38.07) rotate(-135)" fill="#d7a46e"/>
            <path id="Path_713" data-name="Path 713" d="M543.717,244.987l7.379-4.863a.951.951,0,0,1,1.475.794v9.727a.952.952,0,0,1-1.475.794l-7.379-4.864A.951.951,0,0,1,543.717,244.987Z" transform="translate(-528.507 -226.746)" fill="#f5f5f5"/>
          </g>
          <path id="Rectangle_63" data-name="Rectangle 63" d="M0,0H81.929a0,0,0,0,1,0,0V12.356a5.492,5.492,0,0,1-5.492,5.492H5.492A5.492,5.492,0,0,1,0,12.356V0A0,0,0,0,1,0,0Z" transform="translate(0 46.816)" fill="#f7cc7f"/>
          <g id="Group_1017" data-name="Group 1017" transform="translate(11.119 51.498)">
            <line id="Line_16" data-name="Line 16" x1="21.36" transform="translate(43.013)" fill="none" stroke="#f5f5f5" stroke-linecap="round" stroke-linejoin="round" stroke-width="3.295"/>
            <line id="Line_17" data-name="Line 17" x1="35.99" fill="none" stroke="#f5f5f5" stroke-linecap="round" stroke-linejoin="round" stroke-width="3.295"/>
            <line id="Line_18" data-name="Line 18" x1="10.68" transform="translate(53.693 7.022)" fill="none" stroke="#f5f5f5" stroke-linecap="round" stroke-linejoin="round" stroke-width="3.295"/>
            <line id="Line_19" data-name="Line 19" x1="20.482" transform="translate(27.505 7.022)" fill="none" stroke="#f5f5f5" stroke-linecap="round" stroke-linejoin="round" stroke-width="3.295"/>
          </g>
        </g>
        <g id="Group_1022" data-name="Group 1022" transform="translate(0 31.203)">
          <rect id="Rectangle_64" data-name="Rectangle 64" width="88.69" height="36.189" rx="4.567" fill="#f7cc7f"/>
          <g id="Group_1021" data-name="Group 1021" transform="translate(9.131 5.218)">
            <circle id="Ellipse_9" data-name="Ellipse 9" cx="9.175" cy="9.175" r="9.175" transform="translate(61.254 25.95) rotate(-135)" fill="#fff" opacity="0.39"/>
            <g id="Group_1019" data-name="Group 1019" transform="translate(0.446 18.331)">
              <path id="Path_714" data-name="Path 714" d="M601.4,186.086l-.707,1.432a.387.387,0,0,1-.294.213l-1.581.23a.392.392,0,0,0-.217.668l1.144,1.114a.391.391,0,0,1,.112.347l-.27,1.574a.391.391,0,0,0,.567.413l1.413-.743a.393.393,0,0,1,.364,0l1.413.743a.392.392,0,0,0,.568-.413l-.269-1.574a.391.391,0,0,1,.112-.347l1.144-1.114a.392.392,0,0,0-.218-.668l-1.58-.23a.387.387,0,0,1-.294-.213l-.708-1.432A.391.391,0,0,0,601.4,186.086Z" transform="translate(-561.963 -185.867)" fill="#d7a46e"/>
              <path id="Path_715" data-name="Path 715" d="M609.185,186.086l-.707,1.432a.387.387,0,0,1-.294.213l-1.58.23a.392.392,0,0,0-.218.668l1.144,1.114a.391.391,0,0,1,.112.347l-.27,1.574a.391.391,0,0,0,.568.413l1.413-.743a.391.391,0,0,1,.363,0l1.414.743a.391.391,0,0,0,.567-.413l-.27-1.574a.39.39,0,0,1,.112-.347l1.144-1.114a.392.392,0,0,0-.217-.668l-1.581-.23a.387.387,0,0,1-.294-.213l-.707-1.432A.392.392,0,0,0,609.185,186.086Z" transform="translate(-578.882 -185.867)" fill="#d7a46e"/>
              <path id="Path_716" data-name="Path 716" d="M616.974,186.086l-.706,1.432a.391.391,0,0,1-.3.213l-1.58.23a.392.392,0,0,0-.218.668l1.144,1.114a.39.39,0,0,1,.112.347l-.269,1.574a.392.392,0,0,0,.568.413l1.413-.743a.393.393,0,0,1,.365,0l1.413.743a.391.391,0,0,0,.567-.413l-.27-1.574a.391.391,0,0,1,.112-.347l1.144-1.114a.392.392,0,0,0-.217-.668l-1.581-.23a.389.389,0,0,1-.294-.213l-.707-1.432A.392.392,0,0,0,616.974,186.086Z" transform="translate(-595.8 -185.867)" fill="#d7a46e"/>
              <path id="Path_717" data-name="Path 717" d="M624.765,186.086l-.707,1.432a.391.391,0,0,1-.3.213l-1.58.23a.391.391,0,0,0-.217.668l1.142,1.114a.391.391,0,0,1,.112.347l-.269,1.574a.392.392,0,0,0,.568.413l1.413-.743a.393.393,0,0,1,.364,0l1.413.743a.392.392,0,0,0,.568-.413l-.271-1.574a.394.394,0,0,1,.112-.347l1.144-1.114a.392.392,0,0,0-.217-.668l-1.581-.23a.389.389,0,0,1-.294-.213l-.707-1.432A.391.391,0,0,0,624.765,186.086Z" transform="translate(-612.719 -185.867)" fill="#d7a46e"/>
              <path id="Path_718" data-name="Path 718" d="M632.555,186.086l-.707,1.432a.391.391,0,0,1-.3.213l-1.58.23a.391.391,0,0,0-.217.668l1.143,1.114a.394.394,0,0,1,.114.347l-.271,1.574a.391.391,0,0,0,.568.413l1.413-.743a.393.393,0,0,1,.364,0l1.413.743a.392.392,0,0,0,.568-.413l-.271-1.574a.4.4,0,0,1,.112-.347l1.144-1.114a.392.392,0,0,0-.217-.668l-1.58-.23a.391.391,0,0,1-.3-.213l-.707-1.432A.391.391,0,0,0,632.555,186.086Z" transform="translate(-629.638 -185.867)" fill="#d7a46e"/>
            </g>
            <g id="Group_1020" data-name="Group 1020" transform="translate(0 1.167)">
              <line id="Line_20" data-name="Line 20" x1="43.052" fill="none" stroke="#def1fa" stroke-linecap="round" stroke-linejoin="round" stroke-width="1.74"/>
              <line id="Line_21" data-name="Line 21" x1="38.482" transform="translate(4.57 5.777)" fill="none" stroke="#def1fa" stroke-linecap="round" stroke-linejoin="round" stroke-width="1.74"/>
              <line id="Line_22" data-name="Line 22" x1="17.244" transform="translate(25.808 11.553)" fill="none" stroke="#def1fa" stroke-linecap="round" stroke-linejoin="round" stroke-width="1.74"/>
            </g>
          </g>
          <path id="Path_719" data-name="Path 719" d="M590.278,207.1V196.653H575.943l11.589,11.589A1.609,1.609,0,0,0,590.278,207.1Z" transform="translate(-511.242 -160.464)" fill="#f7cc7f"/>
        </g>
        <g id="Group_1026" data-name="Group 1026" transform="translate(377.394 121.31)">
          <rect id="Rectangle_65" data-name="Rectangle 65" width="66.6" height="82.909" rx="5.799" transform="translate(0)" fill="#25353a"/>
          <g id="Group_1023" data-name="Group 1023" transform="translate(12.912 11.893)">
            <line id="Line_23" data-name="Line 23" x1="20.897" transform="translate(20.897)" fill="none" stroke="#fff" stroke-linecap="round" stroke-linejoin="round" stroke-width="1.16"/>
            <line id="Line_24" data-name="Line 24" x1="14.385" transform="translate(27.41 4.417)" fill="none" stroke="#fff" stroke-linecap="round" stroke-linejoin="round" stroke-width="1.16"/>
            <line id="Line_25" data-name="Line 25" x1="6.456" transform="translate(17.754 4.417)" fill="none" stroke="#8db0bd" stroke-linecap="round" stroke-linejoin="round" stroke-width="1.16"/>
            <line id="Line_26" data-name="Line 26" x1="4.162" transform="translate(10.619 4.417)" fill="none" stroke="#fff" stroke-linecap="round" stroke-linejoin="round" stroke-width="1.16"/>
            <line id="Line_27" data-name="Line 27" x1="9.061" transform="translate(0 8.835)" fill="none" stroke="#fff" stroke-linecap="round" stroke-linejoin="round" stroke-width="1.16"/>
            <line id="Line_28" data-name="Line 28" x1="10.193" transform="translate(12.117 8.835)" fill="none" stroke="#fff" stroke-linecap="round" stroke-linejoin="round" stroke-width="1.16"/>
            <line id="Line_29" data-name="Line 29" x1="16.988" transform="translate(24.807 8.835)" fill="none" stroke="#e89b71" stroke-linecap="round" stroke-linejoin="round" stroke-width="1.16"/>
            <line id="Line_30" data-name="Line 30" x1="16.31" transform="translate(16.14 13.252)" fill="none" stroke="#fff" stroke-linecap="round" stroke-linejoin="round" stroke-width="1.16"/>
            <line id="Line_31" data-name="Line 31" x1="6.456" transform="translate(35.339 13.252)" fill="none" stroke="#fff" stroke-linecap="round" stroke-linejoin="round" stroke-width="1.16"/>
          </g>
          <g id="Group_1024" data-name="Group 1024" transform="translate(12.912 34.829)">
            <line id="Line_32" data-name="Line 32" x1="15.121" transform="translate(20.897)" fill="none" stroke="#d7a56c" stroke-linecap="round" stroke-linejoin="round" stroke-width="1.16"/>
            <line id="Line_33" data-name="Line 33" x1="14.385" transform="translate(27.41 4.417)" fill="none" stroke="#fff" stroke-linecap="round" stroke-linejoin="round" stroke-width="1.16"/>
            <line id="Line_34" data-name="Line 34" x1="3.228" transform="translate(20.982 4.417)" fill="none" stroke="#265559" stroke-linecap="round" stroke-linejoin="round" stroke-width="1.16"/>
            <line id="Line_35" data-name="Line 35" x1="7.306" transform="translate(0 8.835)" fill="none" stroke="#fff" stroke-linecap="round" stroke-linejoin="round" stroke-width="1.16"/>
            <line id="Line_36" data-name="Line 36" x1="31.176" transform="translate(10.619 8.835)" fill="none" stroke="#f8e6da" stroke-linecap="round" stroke-linejoin="round" stroke-width="1.16"/>
            <line id="Line_37" data-name="Line 37" x1="12.7" transform="translate(13.475 13.252)" fill="none" stroke="#8db0bd" stroke-linecap="round" stroke-linejoin="round" stroke-width="1.16"/>
            <line id="Line_38" data-name="Line 38" x1="11.383" transform="translate(30.412 13.252)" fill="none" stroke="#fff" stroke-linecap="round" stroke-linejoin="round" stroke-width="1.16"/>
          </g>
          <g id="Group_1025" data-name="Group 1025" transform="translate(12.006 57.765)">
            <line id="Line_39" data-name="Line 39" x1="20.897" transform="translate(21.804)" fill="none" stroke="#fff" stroke-linecap="round" stroke-linejoin="round" stroke-width="1.16"/>
            <line id="Line_40" data-name="Line 40" x1="14.385" transform="translate(28.316 4.417)" fill="none" stroke="#d7a56c" stroke-linecap="round" stroke-linejoin="round" stroke-width="1.16"/>
            <line id="Line_41" data-name="Line 41" x1="15.149" transform="translate(9.967 4.417)" fill="none" stroke="#8db0bd" stroke-linecap="round" stroke-linejoin="round" stroke-width="1.16"/>
            <line id="Line_42" data-name="Line 42" x1="6.229" transform="translate(0 4.417)" fill="none" stroke="#fff" stroke-linecap="round" stroke-linejoin="round" stroke-width="1.16"/>
            <line id="Line_43" data-name="Line 43" x1="8.494" transform="translate(34.207 8.835)" fill="none" stroke="#fff" stroke-linecap="round" stroke-linejoin="round" stroke-width="1.16"/>
          </g>
        </g>
        <g id="Group_1028" data-name="Group 1028" transform="translate(267.65 158)">
          <path id="Rectangle_66" data-name="Rectangle 66" d="M0,0H63.281a0,0,0,0,1,0,0V35.379a3,3,0,0,1-3,3H3a3,3,0,0,1-3-3V0A0,0,0,0,1,0,0Z" transform="translate(0 7.031)" fill="#d7a56c"/>
          <path id="Rectangle_67" data-name="Rectangle 67" d="M3,0H60.281a3,3,0,0,1,3,3V7.031a0,0,0,0,1,0,0H0a0,0,0,0,1,0,0V3A3,3,0,0,1,3,0Z" fill="#25353a"/>
          <g id="Group_1027" data-name="Group 1027" transform="translate(44.458 3.516)">
            <line id="Line_44" data-name="Line 44" x1="6.738" transform="translate(4.541)" fill="none" stroke="#fff" stroke-linecap="round" stroke-linejoin="round" stroke-width="1"/>
            <line id="Line_45" data-name="Line 45" x1="2.93" transform="translate(0)" fill="none" stroke="#fff" stroke-linecap="round" stroke-linejoin="round" stroke-width="1"/>
          </g>
        </g>
        <g id="Group_1030" data-name="Group 1030" transform="translate(223.741 9.642)">
          <rect id="Rectangle_68" data-name="Rectangle 68" width="84.375" height="76.171" rx="7" transform="translate(0)" fill="#f7cc7f"/>
          <g id="Group_1029" data-name="Group 1029" transform="translate(6.739 7.129)">
            <rect id="Rectangle_69" data-name="Rectangle 69" width="70.605" height="41.601" rx="5" transform="translate(0.292)" fill="#f7e5d9"/>
            <path id="Path_720" data-name="Path 720" d="M511.68,176.376l-10.547-10.547-25.928,25.928h30.615a5.859,5.859,0,0,0,5.859-5.859Z" transform="translate(-440.782 -149.716)" fill="#e89871"/>
            <path id="Path_721" data-name="Path 721" d="M543.741,192.8l-33.033-33.031-21.752,21.752v5.027a5.859,5.859,0,0,0,5.812,5.859Z" transform="translate(-488.956 -150.758)" fill="#e89871"/>
            <path id="Path_722" data-name="Path 722" d="M492.206,161.457a3.711,3.711,0,1,0,3.711-3.711A3.71,3.71,0,0,0,492.206,161.457Z" transform="translate(-448.652 -151.105)" fill="#d7a46e"/>
          </g>
        </g>
        <g id="Group_1032" data-name="Group 1032" transform="translate(156.527 240.189)">
          <g id="Group_1031" data-name="Group 1031">
            <ellipse id="Ellipse_10" data-name="Ellipse 10" cx="3.809" cy="3.809" rx="3.809" ry="3.809" transform="translate(7.949)" fill="#1c282b"/>
            <ellipse id="Ellipse_11" data-name="Ellipse 11" cx="3.809" cy="3.809" rx="3.809" ry="3.809" transform="translate(213.011 15.234)" fill="#1c282b"/>
            <path id="Path_723" data-name="Path 723" d="M407.069,357.966h28.359a3.809,3.809,0,1,0,0-7.617h-8.2a3.809,3.809,0,1,1,0-7.617H629.352a3.809,3.809,0,0,1,0,7.617H600.992a3.809,3.809,0,1,0,0,7.617h6.87a3.809,3.809,0,0,1,0,7.617H407.069a3.809,3.809,0,0,1,0-7.617Zm137.078,0h28.4a3.809,3.809,0,1,0,0-7.617h-28.4a3.809,3.809,0,0,0,0,7.617Zm-13.4,0a3.809,3.809,0,1,0-3.809-3.808A3.808,3.808,0,0,0,530.749,357.966Zm-78.463,0a3.809,3.809,0,1,0-3.809-3.808A3.808,3.808,0,0,0,452.286,357.966Z" transform="translate(-403.261 -342.732)" fill="#1c282b"/>
          </g>
        </g>
        <g id="Group_1041" data-name="Group 1041" transform="translate(116.682 0)">
          <g id="Group_1033" data-name="Group 1033" transform="translate(61.862)">
            <rect id="Rectangle_70" data-name="Rectangle 70" width="31.641" height="19.922" transform="translate(0)" fill="none" stroke="#d87448" stroke-linecap="round" stroke-linejoin="round" stroke-width="2"/>
            <path id="Path_724" data-name="Path 724" d="M585.846,137.768l-15.82,12.3-15.82-12.3Z" transform="translate(-554.206 -137.768)" fill="none" stroke="#d87448" stroke-linecap="round" stroke-linejoin="round" stroke-width="2.223"/>
            <line id="Line_46" data-name="Line 46" x1="10.364" y1="10.689" transform="translate(21.276 8.061)" fill="none" stroke="#d87448" stroke-linecap="round" stroke-linejoin="round" stroke-width="2.223"/>
            <line id="Line_47" data-name="Line 47" x1="10.364" y2="10.689" transform="translate(0 8.061)" fill="none" stroke="#d87448" stroke-linecap="round" stroke-linejoin="round" stroke-width="2.223"/>
          </g>
          <g id="Group_1035" data-name="Group 1035" transform="translate(224.851 5.465)">
            <g id="Group_1034" data-name="Group 1034" transform="translate(0)">
              <ellipse id="Ellipse_12" data-name="Ellipse 12" cx="11.305" cy="11.305" rx="11.305" ry="11.305" fill="none" stroke="#d87448" stroke-linecap="round" stroke-linejoin="round" stroke-width="2"/>
              <path id="Path_725" data-name="Path 725" d="M438.309,153.775l-2.631,2.631-7.547-7.547" transform="translate(-421.915 -141.327)" fill="none" stroke="#d87448" stroke-linecap="round" stroke-linejoin="round" stroke-width="2"/>
            </g>
          </g>
          <g id="Group_1036" data-name="Group 1036" transform="translate(295.257 69.004)">
            <path id="Path_726" data-name="Path 726" d="M383.254,198.65l-.079,11.852s-7.854-3.272-8.18-9.071C374.7,196.245,380.914,195.22,383.254,198.65Z" transform="translate(-374.986 -196.652)" fill="#d87448"/>
            <path id="Path_727" data-name="Path 727" d="M368.037,198.643l-.079,11.852s7.9-3.169,8.3-8.964C376.616,196.349,370.422,195.244,368.037,198.643Z" transform="translate(-359.769 -196.645)" fill="#d87448"/>
          </g>
          <g id="Group_1040" data-name="Group 1040" transform="translate(0 10.304)">
            <ellipse id="Ellipse_13" data-name="Ellipse 13" cx="2.693" cy="2.693" rx="2.693" ry="2.693" transform="translate(276.994 5.109)" fill="none" stroke="#d87448" stroke-miterlimit="10" stroke-width="2"/>
            <path id="Path_728" data-name="Path 728" d="M601.006,149.254a2.692,2.692,0,1,0,2.692-2.693A2.692,2.692,0,0,0,601.006,149.254Z" transform="translate(-567.732 -146.561)" fill="none" stroke="#d87448" stroke-miterlimit="10" stroke-width="2"/>
            <path id="Path_729" data-name="Path 729" d="M620.94,282.788a2.693,2.693,0,1,0,2.693-2.692A2.692,2.692,0,0,0,620.94,282.788Z" transform="translate(-611.027 -123.611)" fill="none" stroke="#d87448" stroke-linecap="round" stroke-linejoin="round" stroke-width="2"/>
            <g id="Group_1037" data-name="Group 1037" transform="translate(201.361 11.433)">
              <line id="Line_48" data-name="Line 48" y2="5.385" transform="translate(2.693)" fill="none" stroke="#d87448" stroke-linecap="round" stroke-linejoin="round" stroke-width="2"/>
              <line id="Line_49" data-name="Line 49" x2="5.386" transform="translate(0 2.693)" fill="none" stroke="#d87448" stroke-linecap="round" stroke-linejoin="round" stroke-width="2"/>
            </g>
            <g id="Group_1038" data-name="Group 1038" transform="translate(0 114.256)">
              <line id="Line_50" data-name="Line 50" y2="5.385" transform="translate(2.693)" fill="none" stroke="#d87448" stroke-linecap="round" stroke-linejoin="round" stroke-width="2"/>
              <line id="Line_51" data-name="Line 51" x2="5.385" transform="translate(0 2.693)" fill="none" stroke="#d87448" stroke-linecap="round" stroke-linejoin="round" stroke-width="2"/>
            </g>
            <g id="Group_1039" data-name="Group 1039" transform="translate(306.376 169.917)">
              <line id="Line_52" data-name="Line 52" y2="5.386" transform="translate(2.693)" fill="none" stroke="#d87448" stroke-linecap="round" stroke-linejoin="round" stroke-width="2"/>
              <line id="Line_53" data-name="Line 53" x2="5.386" transform="translate(0 2.693)" fill="none" stroke="#d87448" stroke-linecap="round" stroke-linejoin="round" stroke-width="2"/>
            </g>
          </g>
        </g>
      </g>
      <g id="Group_12044" data-name="Group 12044" transform="translate(221.082 115.635)">
        <path id="Path_30973" data-name="Path 30973" d="M673.473,336.311l3.115-8.048-.93-1.808-1.471-2.866-.885-6.2-1.9-1.889-1.1.489-5,1.93,1.119,4.059a7.051,7.051,0,0,0,1.235,2.468l1.193,1.54,1.133,3.321,2.267,3.639Z" transform="translate(-665.074 -306.44)" fill="#ff9d6d"/>
        <path id="Path_30974" data-name="Path 30974" d="M667.965,333.822c1.372-1.572,2.806-6.724,3.457-6.84.016,0-1.472-2.866-1.472-2.866l.644-1.782a3.374,3.374,0,0,0,.2-1.338c-.007-.173-.019-.363-.025-.557a4.779,4.779,0,0,0-.722-2.318l-.48-.767-1.735-1.716c-.226-.207-.545-.027-.66.388a1.681,1.681,0,0,0,.2,1.235l.848,1.883-1.149.9a2.564,2.564,0,0,0-.681,2.4l.018.078c.056.231,1.22,2.616,1.22,2.616s-1.581,3.635-1.87,4.686Z" transform="translate(-660.566 -306.414)" fill="#ffae80"/>
        <path id="Path_30975" data-name="Path 30975" d="M675.461,316.244a1.245,1.245,0,0,1-.839,1.324l-1.1.369-3.8.113c-.668.019-.838-.725-1.01-1.369l-.554-.185a.523.523,0,0,1,.425-.651l3.584-.551,2.386.1A.952.952,0,0,1,675.461,316.244Z" transform="translate(-668.143 -306.539)" fill="#ffae80"/>
        <path id="Path_30976" data-name="Path 30976" d="M636.606,330.59,650.872,348.7c8.117-.973,12.714-1.713,21.049-2.958a10.705,10.705,0,0,0,2.076-.734c3.288-1.173,6.638-2.506,10.144-3.984L682.013,325.8s-.52.019-1.442,0a30.956,30.956,0,0,0-9.966,1.877l-.314.105a76.977,76.977,0,0,0-15.811,7.971s-14.2-13.385-14.2-13.42Z" transform="translate(-630.126 -303.154)" fill="#456f96"/>
        <path id="Path_30977" data-name="Path 30977" d="M623.273,343.921c0,.949.012,1.365.024,2.1v.57c.024,1.164.748,3.74.771,4.891.083,3.762.225,7.454.452,11.028.249,4.475-1.081,6.635-.523,10.588l5.176.343,23.719,1.568a48.416,48.416,0,0,1,1.555-6.706c.118-.653.261-1.282.416-1.9,1.412-5.793,3.906-10.7,4.973-19.612a1.622,1.622,0,0,1,.024-.19c.024-.142.061-.333.1-.558.059-.345.13-.771.2-1.27.048-.32.107-.677.154-1.069s.107-.795.154-1.221.084-.891.132-1.355a32.883,32.883,0,0,0,.036-5.188c-.012-.118-.012-.237-.024-.355a11.554,11.554,0,0,0-9.189-10.351c-4.012-.832-8.178-1.639-9.342-1.757l-9.462,2.077-4.357,1.27-.308.071c-.012.725.428,7.931.605,11.266,0,.059.012.13.012.19.047.712.071,1.211.071,1.4-.012.915-.012,1.828,0,2.755,0,.712,0,1.436.012,2.148a21.4,21.4,0,0,1-2.172-.286C624.982,344.134,623.273,343.862,623.273,343.921Z" transform="translate(-586.965 -302.606)" fill="#5589b9"/>
        <path id="Path_30978" data-name="Path 30978" d="M640.284,332.139l.42.734s6.11-4.872,7.288-7.083l-3.2-6.892-9.5,4.514Z" transform="translate(-592.038 -304.806)" fill="#ffae80"/>
        <path id="Path_30979" data-name="Path 30979" d="M638.534,329.573l-.271,2.976c1.257,9.525-.49,17.44,6.028,23.06l-1.845,3.9-3.822-1.387c-5.484-6.967-2.628-15.74-2.225-25.294l-1.115-2.967,1.7-1.519Z" transform="translate(-588.319 -300.271)" fill="#fff"/>
        <path id="Path_30980" data-name="Path 30980" d="M664.562,337.212l2.771-8.43-2.385-2.311-2.677-1.855.629-1.276,1.452-1.973-1.1-.065-1.451-3.763-2.1-1.5-5.381-.11c-.6-.016-1,.6-1.164,1.162l1.013.155,1.236,4.316c.244.9.117,2.407.685,3.143l1.138,2.487C661.023,332.44,662.465,334.985,664.562,337.212Z" transform="translate(-637.822 -306.236)" fill="#ffae80"/>
        <path id="Path_30981" data-name="Path 30981" d="M623.273,339l.416,1.329,1.282,4.061.913-.024,24.158-.879s.677,13.748,2.03,18.876c1.412-5.793,3.906-10.7,4.973-19.612a1.624,1.624,0,0,1,.024-.189c.024-.142.061-.333.1-.558.059-.345.13-.771.2-1.27.048-.32.107-.677.154-1.069s.107-.8.154-1.221.084-.891.132-1.355a32.883,32.883,0,0,0,.036-5.188l-31.993,6.566Z" transform="translate(-584.176 -298.561)" fill="#456f96" opacity="0.3" style="mix-blend-mode: multiply;isolation: isolate"/>
        <path id="Path_30982" data-name="Path 30982" d="M636.627,330.014l11.824,14.993c8.107-.973,7.858-1,15.575-2.124v.57c.024,1.164.748,3.74.771,4.891.083,3.762.225,7.454.452,11.028.249,4.475-1.081,6.635-.523,10.588l5.176.344,9.568.1,2.207-.3c-6.766-1.412-13.616-2.789-14.541-6.2l4.438-22.59-1.02-6.589-1.258.487-.249.095-18.828,5.627Z" transform="translate(-627.694 -299.466)" fill="#456f96" opacity="0.3" style="mix-blend-mode: multiply;isolation: isolate"/>
        <path id="Path_30983" data-name="Path 30983" d="M643.234,324.6l-2.98-2.469-6.31,9.2,3.881,3.132Z" transform="translate(-585.279 -303.255)" fill="#456f96"/>
        <path id="Path_30984" data-name="Path 30984" d="M645.683,330.215l-3.328,2.973-2.136-6.8,2.154-1.954Z" transform="translate(-597.017 -302.148)" fill="#456f96"/>
        <g id="Group_12040" data-name="Group 12040" transform="translate(36.645)">
          <path id="Path_30985" data-name="Path 30985" d="M645.562,322.06c1.014,2.409.207,5.074-1.389,7.848l-4.637-2.383Z" transform="translate(-632.98 -303.288)" fill="#ffae80" opacity="0.5" style="mix-blend-mode: multiply;isolation: isolate"/>
          <path id="Path_30986" data-name="Path 30986" d="M640.2,332.7a2.4,2.4,0,0,0,2.267.771l1.991-.447a5.894,5.894,0,0,0,1.979-1.139,7.505,7.505,0,0,0,2.6-7.214.609.609,0,0,0,.105-.025c1.491-.351,4.092.657,3.965-.805-.139-1.617,1.159-4.27.947-6.394-2.01-9.251-7.676-7.663-11.129-7.022a8.053,8.053,0,0,0-6.125,5.586,10.308,10.308,0,0,0-.416,3.122,15.053,15.053,0,0,0,.152,1.882,11.933,11.933,0,0,0,.662,1.024l-.124.527-.557,2.351a1.013,1.013,0,0,0,.964,1.2l.934.081c.129.617.543,4.145.543,4.145A4.944,4.944,0,0,0,640.2,332.7Z" transform="translate(-636.387 -309.127)" fill="#ffae80"/>
          <path id="Path_30987" data-name="Path 30987" d="M652.2,326.285c-6.877,2.832-3.826-5.315-3.826-5.315s-1,2.524-1.389,3.251c-1.026.176-1.026.176-1.963.275-1.825-7.845-.66-12.387-9.044-8.938-1.075-5.575,14.347-10.279,17.028-.571C653.737,317.645,654.288,319.1,652.2,326.285Z" transform="translate(-635.278 -309.38)" fill="#131313"/>
          <path id="Path_30988" data-name="Path 30988" d="M641.913,318.124c.265,1.461-.662,3.368-1.617,3.541s-1.063-1.03-1.341-2.487c-.185-.964-.677-2.292.314-2.786C640.138,315.959,641.527,315.984,641.913,318.124Z" transform="translate(-627.644 -306.117)" fill="#ffae80"/>
        </g>
        <path id="Path_30989" data-name="Path 30989" d="M623.286,331.485l2.727-8.824,16.744,11.8,18.6-8.254c6.578-.922,12.3,4.006,11.866,11.978L640.6,349.143Z" transform="translate(-599.512 -302.998)" fill="#5589b9"/>
        <g id="Group_12043" data-name="Group 12043" transform="translate(21.696 70.495)">
          <g id="Group_12041" data-name="Group 12041" transform="translate(0 92.703)">
            <path id="Path_30990" data-name="Path 30990" d="M664.11,420.315c.432.12,1.057.349,1.008,4.659h-20.6C644.522,419.124,659.169,418.955,664.11,420.315Z" transform="translate(-644.522 -419.615)" fill="#16191e"/>
            <rect id="Rectangle_2970" data-name="Rectangle 2970" width="20.597" height="1.785" transform="translate(0 4.865)" fill="#16191e"/>
          </g>
          <path id="Path_30991" data-name="Path 30991" d="M659.807,358.919c.228,4.378.354,7.811.354,8.194l.262,7.4,6.031,79.116c0,.01.012.508.012.508h-12.7l-8.6-76.565-.022-.281-9.259,76.348-12.015-4.616,6.329-81.911c0-.332.113-4.576.3-8.194Z" transform="translate(-615.287 -356.074)" fill="#3c3c3b"/>
          <path id="Path_30992" data-name="Path 30992" d="M657.623,359.872c0-1.531.058-2.1,0-2.875h-29.19a11.321,11.321,0,0,0,0,2.875Z" transform="translate(-613.094 -356.997)" fill="#16191e"/>
          <rect id="Rectangle_2971" data-name="Rectangle 2971" width="3.424" height="2.299" transform="translate(23.953 0.288)" fill="#fbf7cf"/>
          <g id="Group_12042" data-name="Group 12042" transform="translate(38.479 93.403)">
            <path id="Path_30993" data-name="Path 30993" d="M630.216,420.088c3.509,0,6.351.349,6.351,4.659h-12.7C623.866,420.239,626.707,420.088,630.216,420.088Z" transform="translate(-623.866 -420.088)" fill="#16191e"/>
            <rect id="Rectangle_2972" data-name="Rectangle 2972" width="12.7" height="1.785" transform="translate(0 4.164)" fill="#16191e"/>
          </g>
          <path id="Path_30994" data-name="Path 30994" d="M632.11,366.272a13.784,13.784,0,0,1-1.352.632C631.211,366.688,631.655,366.479,632.11,366.272Z" transform="translate(-591.133 -352.541)" opacity="0.07"/>
          <path id="Path_30995" data-name="Path 30995" d="M666.467,449.979c-.018,0-4.72.5-4.72.5h-7.989l-8.6-76.563-.018-.28-9.263,76.347-12.015-4.619h.1c5.34-.136,9.66-3.974,9.864-8.776l9.709-62.648c-1.094-3.165-4.675-5.458-8.337-7.393,4.826,2.622,14.167,2.486,19.711.232-4.114,1.942-8.042,4.172-8.5,7.057l8.5,59.532a21.954,21.954,0,0,0,10.268,15.865l1.272.743Z" transform="translate(-615.284 -352.411)" fill="#593530" opacity="0.4" style="mix-blend-mode: multiply;isolation: isolate"/>
        </g>
      </g>
    </g>
    <g id="Group_11898" data-name="Group 11898" transform="translate(447.445 143.324)">
      <path id="Path_30591" data-name="Path 30591" d="M371.207,47.7c-.74,1.667-7.227,15.049-8.882,16.043s-1.9,2.332-.845,3.12,2.393,3.775,11.292-1.241S371.207,47.7,371.207,47.7Z" transform="translate(-324.219 -16.974)" fill="#d6e2ea"/>
      <g id="Group_11890" data-name="Group 11890" transform="translate(12.272 31.85)">
        <path id="Path_30592" data-name="Path 30592" d="M356.928,52.923a21.97,21.97,0,0,1-1.962-2.272c-.394-.623-1.658-.937-2.492-1.923-.3-.364-.972-.476-.882.082s.777,1.067,1.061,1.749c.368.848-2.109.016-2.748-.237-.549-.214-4.02-1.022-4.124-.6-.186.769,3.829,1.317,3.676,1.619-.127.245-4.279-1.121-4.29-.63-.037,1.055,3.46,1.394,3.7,1.985,0,0-.842-.208-1.745-.434-.827-.212-1.591-.609-1.782-.479-1.32.917,4.229,1.528,3.831,2.12-.318.471-3.051-.613-3.051.053,0,.329,3.427,1.165,3.427,1.165a47.68,47.68,0,0,0,6.144,2.3,18.244,18.244,0,0,1,3.707,1.985l.685-4.592A12.475,12.475,0,0,1,356.928,52.923Z" transform="translate(-345.142 -48.423)" fill="#d8a798"/>
        <path id="Path_30593" data-name="Path 30593" d="M359.886,53.886l-5.278-2.142s-2.167,5.386-2.59,6.05l4.6,2.047Z" transform="translate(-341.354 -46.594)" fill="#d6e2ea"/>
        <path id="Path_30594" data-name="Path 30594" d="M356.656,52.631c1.6-.389,8.927,4.105,11.9,5.679s2.683,8.606,1.573,8.989S352.943,63.4,354,58.334,356.656,52.631,356.656,52.631Z" transform="translate(-340.292 -46.118)" fill="#d6e2ea"/>
      </g>
      <path id="Path_30595" data-name="Path 30595" d="M371.585,44.555a37.159,37.159,0,0,0-3.75,3.6l-1.293,4.781s4.8-3.2,5.907-3.441S371.585,44.555,371.585,44.555Z" transform="translate(-321.082 -18.704)" fill="#fff"/>
      <path id="Path_30596" data-name="Path 30596" d="M357.44,149.016a1.125,1.125,0,0,1-.8-1.317h0l8.821-49.675c1.659-10.767,8.061-14.091,14.007-14.13h0l.095,0c7.486.487,11.543,5.8,12.743,14.125h0l7.933,49.7a1.116,1.116,0,0,1-.834,1.295h0a1.033,1.033,0,0,1-1.182-.915h0l-7.931-49.7c-1.314-7.807-4.263-11.651-10.817-12.269h0c-5.388.253-10.31,2.457-12,12.3h0l-8.826,49.7a1.047,1.047,0,0,1-1.006.906h0a1.1,1.1,0,0,1-.194-.02Z" transform="translate(-326.55 2.966)" fill="#a7b9ce"/>
      <path id="Path_30597" data-name="Path 30597" d="M364.967,111.132l-5.586-1.507a.8.8,0,0,1-.557-.974h0a.794.794,0,0,1,.966-.555h0l5.594,1.511a.788.788,0,0,1,.552.969h0a.782.782,0,0,1-.758.583h0a.716.716,0,0,1-.211-.026Z" transform="translate(-325.349 16.281)" fill="#151823"/>
      <path id="Path_30598" data-name="Path 30598" d="M363.611,97.66s-8.737,4.175-6.631,7.05c3.007,4.1,3.226,9.215,1.028,14.775-.754,1.921-.547,2.612-.1,3.32a2.133,2.133,0,0,0,2.021,1.31c1.94-.045,6.324-4.269,8.786-9.032.664-1.295-.155-2.764,3.038-4.715a12.154,12.154,0,0,0,1.714-2.607,13.4,13.4,0,0,0-2.728-3.472A34.09,34.09,0,0,0,363.611,97.66Z" transform="translate(-326.53 10.548)" fill="#151823"/>
      <path id="Path_30599" data-name="Path 30599" d="M360.043,114.994s-7.815-1.605-9.1,1.752c-2.545,6.666-6.411,6.759-10.574,8.762-1.867.895-2.644,1.794-2.909,2.61a2.17,2.17,0,0,0,.295,2.413c1.292,1.48,6.667,3.514,13.833.915,1.393-.5,2.864-.913,3.938-.363.561.288,3.126-.354,3.126-.354a27.03,27.03,0,0,0,.627-4.753A43.45,43.45,0,0,0,360.043,114.994Z" transform="translate(-337.229 19.885)" fill="#151823"/>
      <path id="Path_30600" data-name="Path 30600" d="M387.22,110.824l-5.591-1.512a.786.786,0,0,1-.558-.963h0a.79.79,0,0,1,.966-.56h0l5.592,1.506a.789.789,0,0,1,.555.966h0a.783.783,0,0,1-.757.588h0a.94.94,0,0,1-.208-.025Z" transform="translate(-313.094 16.112)" fill="#a7b9ce"/>
      <path id="Path_30601" data-name="Path 30601" d="M360.207,154.231a1.162,1.162,0,0,1-.842-1.36h0L368.7,98.359c1.756-11.758,8.5-15.4,14.814-15.443h0l.1,0c7.934.538,12.2,6.343,13.472,15.442h0l8.4,54.531a1.161,1.161,0,0,1-.865,1.34h0a1.071,1.071,0,0,1-1.225-.946h0L395,98.745c-1.391-8.61-4.56-12.858-11.481-13.508h0c-5.687.261-10.923,2.686-12.729,13.529h0L361.444,153.3l0,.006a1.085,1.085,0,0,1-1.038.94h0a1.219,1.219,0,0,1-.2-.017Z" transform="translate(-325.046 2.426)" fill="#a7b9ce"/>
      <g id="Group_11891" data-name="Group 11891" transform="translate(35.299 83.754)">
        <path id="Path_30602" data-name="Path 30602" d="M401.373,86.155a3.161,3.161,0,0,0-2.993-3.31h-35.4a3.163,3.163,0,0,0-2.993,3.31,3.355,3.355,0,0,0,1.551,2.875c1.389,1.3,9.44,2.294,19.2,2.294,10.226,0,18.59-1.095,19.365-2.48A3.4,3.4,0,0,0,401.373,86.155Z" transform="translate(-359.99 -81.366)" fill="#c5d0dd"/>
        <path id="Path_30603" data-name="Path 30603" d="M399.176,83.99c0,1.166-8.539,2.1-19.064,2.1s-19.075-.938-19.075-2.1,8.537-2.1,19.075-2.1S399.176,82.83,399.176,83.99Z" transform="translate(-359.414 -81.892)" fill="#e4eef4"/>
      </g>
      <path id="Path_30604" data-name="Path 30604" d="M380.64,69.5c-.394,1.193-3.492,9.062-5.364,9.687-8.33,2.773-18.2,2.653-27.827,5.057-7,1.754-8.145,10.367-4.069,15.366,9.772,11.994,19.493,26.285,19.493,28.621,4.668,1,13.329-12.334,13.329-12.334s-7.4-9.624-13.329-18.019c-1.633-2.314,33.449-5.262,34.771-10.594S380.64,69.5,380.64,69.5Z" transform="translate(-335.135 -4.964)" fill="#151823"/>
      <path id="Path_30605" data-name="Path 30605" d="M405.1,77.129c.2,11.83-3.55,14-8.286,14.792-5.409.9-33.535,12.23-33.535,15.581,0,6.414-2.036,33.872-4.747,42.757-.622,2.016-15.981-1.543-15.981-1.543,1.849-12.959,5.243-31.743,6.907-44.176.892-6.655,1.966-7.616,4.626-10,4.9-4.369,16.724-8.754,24.247-14.186,3.792-2.74,9.412-10.86,9.412-10.86Z" transform="translate(-334.301 -4.964)" fill="#151823"/>
      <g id="Group_11894" data-name="Group 11894" transform="translate(41.326 0.001)">
        <path id="Path_30606" data-name="Path 30606" d="M364.633,35.121c-.3,0-.631,0-.631.219s.028,2.588.673,2.889.434-.043.434-.043-.907-1.956-.644-2.588c.057-.146.644-.15.644-.15l.149-.281Z" transform="translate(-363.807 -23.902)" fill="#282a35"/>
        <path id="Path_30607" data-name="Path 30607" d="M370.638,35.376c0-1.38,1.43-2.1,2.243-1.391.83.734,2.118,4.214.64,5.425S370.638,35.376,370.638,35.376Z" transform="translate(-360.151 -24.679)" fill="#d8a798"/>
        <g id="Group_11893" data-name="Group 11893">
          <path id="Path_30608" data-name="Path 30608" d="M379.684,34.088c.862,1.766-.168,13.976,2.3,15.646s-11.51,8.975-11.51,8.975,2.559-7.692-4.012-10.353C364.4,47.515,379.684,34.088,379.684,34.088Z" transform="translate(-362.555 -24.471)" fill="#d8a798"/>
          <g id="Group_11892" data-name="Group 11892">
            <path id="Path_30609" data-name="Path 30609" d="M372.219,29.516c-4.237-.034-6.242,1.545-7.163,7.838-.056.4.4,1.295.364,1.687,0,.082-.011.154-.02.25a33.092,33.092,0,0,0-1.521,4.359c.057.329.856.7,1.6.8a18.377,18.377,0,0,0-.2,3.271c0,1.877.113,2.88.655,2.985,2.025.374,5.44-1.593,7.68-2.03,3.06-.6,3.344-5.088,3.858-8.328C378.319,34.986,377.64,29.563,372.219,29.516Z" transform="translate(-363.876 -26.989)" fill="#d8a798"/>
            <path id="Path_30610" data-name="Path 30610" d="M373.391,38.1c-.673,2.229-3.092,4.693-3.634,5.22s-4.811-.091-4.811-.091-.955,3.333-.123,5.183c.228.5,2.993.647,5.549.586.82-.022,3.22-2.79,4.031-3.455.518-.422.529-7.622.6-8.362S373.391,38.1,373.391,38.1Z" transform="translate(-363.542 -22.87)" fill="#380f01"/>
            <path id="Path_30611" data-name="Path 30611" d="M365.7,33.8c-.813-.823-.053-.49-1.05-1.841a3.707,3.707,0,0,1-.312-1.818l2.85.467s-2.077-.253-2.608-.868c-.135-.154,5.172-.648,5.172-.648a14.7,14.7,0,0,1,8.786-.834c2.88.786,3.24,2.5,3.24,2.5s5.868,3.973,1.667,12.585c0,0-1.031,4.048-.735,5.208-1.444.8-5.468-2.461-5.468-2.461s-1.137-2.35-.648-3.4c1.044-2.236.036-3.955-.582-3.142-.226.285-.577,1.752-.985,1.982-.36.2-1.639,2.122-1.546,1.782a9.9,9.9,0,0,0-2.469-8.7c-1.022-.83,2.871-2.019,4.107-2.208s-2.047-.209-5.234,1.832C369.241,34.654,365.7,33.8,365.7,33.8Z" transform="translate(-363.624 -27.887)" fill="#380f01"/>
            <path id="Path_30612" data-name="Path 30612" d="M371.8,35.658c.312-.585,2.112-1.01,2.142.433.045,1.456-.92,4.44-2.143,4.294S371.8,35.658,371.8,35.658Z" transform="translate(-359.811 -23.905)" fill="#d8a798"/>
          </g>
        </g>
        <path id="Path_30613" data-name="Path 30613" d="M374.891,35.046l-7.8.183.518,1.381,7.021-1.129Z" transform="translate(-362.103 -23.943)" fill="#151823"/>
        <path id="Path_30614" data-name="Path 30614" d="M365.5,38.652a4.371,4.371,0,0,0,2.788.471c1.238-.107,1.4-3.666.312-4.01-.955-.306-3.727-.476-3.882.388S364.8,38.24,365.5,38.652Zm-.5-2.88c.135-.723,2.058-.549,2.858-.295.91.288.834,3.128-.2,3.215a3.261,3.261,0,0,1-1.877-.248A3.275,3.275,0,0,1,365,35.772Z" transform="translate(-363.438 -24.043)" fill="#151823"/>
      </g>
      <path id="Path_30615" data-name="Path 30615" d="M382.526,42.924c2.591,2.962,5.806,6,6.915,7.484s4.313,16.33,2.833,25.831c-1.2,7.714,4.564,13.325,2.712,15.176a4.2,4.2,0,0,0-1.416,3.7s-22.027-6.109-27.394-4.069c-2.793,1.055-1.808-2.427-1.421-8.271.371-5.554-.617-10.612.495-16.9s4.135-14.068,7.221-15.919S382.526,42.924,382.526,42.924Z" transform="translate(-322.335 -19.603)" fill="#fff"/>
      <path id="Path_30616" data-name="Path 30616" d="M368.764,49.8c-.74,2.129-2.407,6.295-3.241,8.792s-.921,5.184-.461,9.255-.335,11.9-.8,14.209a13.334,13.334,0,0,0,.259,5.267c.1-3.247,2.132-10.518,3.973-12.65,2.139-2.475.268-15.248,1.469-19.965s.281-6.11.281-6.11Z" transform="translate(-322.423 -16.481)" fill="#d6e2ea"/>
      <path id="Path_30617" data-name="Path 30617" d="M373.487,49.976l-1.729,2.1s-4.564,26.342-4.564,28.072-4.252,4.812-4.252,4.812l-.188-6.662s7.526-25.235,7.526-26.471a32.787,32.787,0,0,1,.493-3.947l1.509-.955Z" transform="translate(-323.169 -17.401)" fill="#151823"/>
      <path id="Path_30618" data-name="Path 30618" d="M379.389,42.189l2.466,3.209s-9.682,6.538-12.4,10.24l-.558-6.109s.372.064,4.321-2.16A21.589,21.589,0,0,0,379.389,42.189Z" transform="translate(-319.784 -20.008)" fill="#d6e2ea"/>
      <g id="Group_11895" data-name="Group 11895" transform="translate(21.647 45.022)">
        <path id="Path_30619" data-name="Path 30619" d="M357.694,57.792c-1.476.064-2.75.127-3.747.171,0,0-2.52.692-2.5,1.248s1.712-.2,2.545-.231,1.8-.181,1.8-.181-4.2.4-4.536,1.253.568.208,1.574-.019a11.423,11.423,0,0,1,3.1.119,10.261,10.261,0,0,0-2.956.15c-1.832.45-1.441.94-1.248,1.12a6.674,6.674,0,0,0,2.273-.2,16.683,16.683,0,0,1,2.593.016s-3.485.023-4.111.6.453.382,1.312.282c1.318-.15,1.486.123,2.711.538s3.765,1.511,6.514.749c1.427-.4,4.725,2.4,5.012,2.565s.876-5.746.876-5.746S359.177,57.73,357.694,57.792Z" transform="translate(-351.187 -56.435)" fill="#d8a798"/>
        <path id="Path_30620" data-name="Path 30620" d="M363.1,59.833c-1.6-.678-3.024-1.448-4.073-1.946a16.774,16.774,0,0,0-4.4-.969c-.5,0-.417.571,2.917,1.8,1.042.386-.188,1.667-.188,1.667Z" transform="translate(-349.416 -56.917)" fill="#d8a798"/>
      </g>
      <g id="Group_11896" data-name="Group 11896" transform="translate(33.86 29.777)">
        <path id="Path_30621" data-name="Path 30621" d="M361.99,65.369c1.873-1.422,10.062.368,14.294,1.917.7.256,2.066-7.864,3.023-12.579.741-3.627,2.629-8.2,7.432-7.56,0,0,5.105,2.067,4.939,11.161-.074,4.086-3.617,16.658-7.3,19.565a44.927,44.927,0,0,1-11.4-.551c-3.683-.546-11.686-2.447-11.656-4.3S361.99,65.369,361.99,65.369Z" transform="translate(-357.819 -47.086)" fill="#d6e2ea"/>
        <path id="Path_30622" data-name="Path 30622" d="M363.812,58.893l-3.89-.637s1.408,4.187-.861,7.021l4.042,2.286Z" transform="translate(-359.062 -40.934)" fill="#fff"/>
        <path id="Path_30623" data-name="Path 30623" d="M387.236,52.841c.194,7.27-3.406,16.619-5.816,17.545s-16.385,4.127-18.207-2.675c-.92-3.432-.927-2.778-.927-1.483s-.7,7.033-.7,7.033,12.019,5.557,22.034,3.23c3.252-.755,8.3-17.559,6.72-22.971-1.486-5.073-5.657-7.067-4.556-5.138A21.861,21.861,0,0,1,387.236,52.841Z" transform="translate(-357.673 -46.772)" fill="#fff"/>
      </g>
      <g id="Group_11897" data-name="Group 11897" transform="translate(45.594 63.016)">
        <path id="Path_30624" data-name="Path 30624" d="M374.124,68.582c1.3,1.579,2.81,6.76,1.017,6.112-1.528-.557-6.216-.788-5.752-.6s.9-.738,3.533-1.109C374.878,72.706,374.124,68.582,374.124,68.582Z" transform="translate(-365.126 -68.485)" fill="#d6e2ea"/>
        <path id="Path_30625" data-name="Path 30625" d="M373.668,71.022c0-1.386-.924-3.434-1.113-2.032-.181,1.386.093,2.68-1.2,2.959s-1.295-1.3-1.756-.648-1.621,1.481-2.733,2.779,1.945-.557,4.074.091S373.668,72.23,373.668,71.022Z" transform="translate(-366.629 -68.52)" fill="#d6e2ea"/>
      </g>
      <path id="Path_30626" data-name="Path 30626" d="M375.6,76.818c-2.959,2.038-23.015,12.03-25.048,14.621s-3.334,10.364-3.147,12.774S342.465,144,342.465,144a8.422,8.422,0,0,0,4.259,1.481c2.59-16.287,4.282-40.511,4.5-44.731.242-4.687,2.464-9.131,4.314-10.422S375.6,76.818,375.6,76.818Z" transform="translate(-334.345 -0.933)" fill="#282a35"/>
    </g>
    <g id="Group_11847" data-name="Group 11847" transform="translate(55.22 143.324)">
      <path id="Path_30469" data-name="Path 30469" d="M363.213,186.6c.127-3.887-.393-58.88-1.023-67.267-.258-3.314-.065-6.808-.664-9.741-.448-2.9-2.546-5.688-6.346-5.584a38.356,38.356,0,0,0-4.426.2c.1-6.921,1.146-15.549,2.439-19.524,1.7-5.212.081-8.7.081-8.7-4.5-6.566-23.621-5.477-23.587-6.6.036-.044.085-.095.121-.135,2.38-1.226,4.718-4.773,6.169-11.143a27.38,27.38,0,0,0,.982-4.21.525.525,0,0,0,.034.067s-.012-.038-.034-.1c-.093-3.282-2.487-7.583-6.249-8.246-5.2-.9-6.963-.557-7.405.93l-.04-.093c-2.536-.863-8.742,3.252-6.7,12.4-3.306,1.081-3.948,7.131-3.478,13.771-3.018.541-5.424,1.416-6.627,2.76-1.325.141-2.871,3.23-5.261,8.341-3.159,6.737-8.143,18.685-6.568,20.729a9.291,9.291,0,0,0,2.364,1.773,8.122,8.122,0,0,0-1.424,2.955c-.873,2.939-1,6.451-1.571,9.777-1.4,8.414-7.01,63.7-7.24,67.606l3.131,0c.151-2.622,3.242-33.719,5.38-52.937a3.134,3.134,0,0,0,.888,1.452,32.6,32.6,0,0,0,5.313.347c-.529,3.972-1.093,8.216-1.66,12.458-2.2,16.5-4.418,33.044-4.42,33.074l2.483.206c0-.034,3.5-26.3,6.058-45.673,1.164.026,2.425.05,3.772.073.169.426,1.269.8,2.983,1.128-.012.2-.02.365-.036.575-.7,8.676,10.372,27.387,11.889,37.709a51.306,51.306,0,0,1,.716,6.376c.024.547.046,1.047.069,1.531-.309-.4-.563,1.329-.127,3.615a6.635,6.635,0,0,0,5.212,4.912c1.348.107,3.548-1.36,3.814-4.69a6.716,6.716,0,0,0,4.765,4.775c1.908.28,5.767-2.53,3.453-9.9-.04.115-.109.192-.153.3-.288-1.13-.672-2.447-1.184-4.04-1.063-3.3-1.132-7.865-.93-13.051.121-3.115.335-6.445.488-9.856a93.542,93.542,0,0,0-.405-17,7.636,7.636,0,0,0,1.872-.307c.288-.121.4-.823.44-1.82,3.439.01,6.576.016,9.19.02.769,19.4,1.866,46.389,1.864,46.42l2.483-.2c.006-.044-1.1-26.889-1.89-46.214,2.681,0,4.486,0,5,.006a7.964,7.964,0,0,0,2.37-2.846c.383,19.052.629,50.934.531,53.583Zm-8.146-79.568c2.433.139,2.85.908,3.49,3.26.5,2.328.343,5.812.605,9.364.079,1.011.151,2.77.224,5.073-.052-.1-.089-.21-.145-.3-.748-1.3-2.735-1.789-4.569-1.949-.934-3.308-3.211-7.875-3.712-12.428-.091-.843-.151-1.787-.186-2.8A36.626,36.626,0,0,1,355.067,107.027ZM306.481,95.64c.008,1.291-.006,2.6-.044,3.9l-2.9-.656C303.584,98,304.809,97.181,306.481,95.64Zm-1.1,14.449c-.962,4.383-3.506,8.732-4.744,11.95a13.726,13.726,0,0,0-2.614.182,10.435,10.435,0,0,0-1.519.882c.212-1.666.393-2.975.529-3.784.579-3.56.754-7.064,1.464-9.394a7.031,7.031,0,0,1,1.154-2.279A58.461,58.461,0,0,0,305.382,110.089Zm25.881,71.241a6.03,6.03,0,0,1-.311.71c-.131-.4-.28-.823-.448-1.271V180.7c-.349-.914-.764-1.928-1.243-3.07-2.308-5.569-1.82-15.341-2.189-25.447,2.2,8.406,4.815,17.42,4.932,22.774.061,2.55.309,5.344.42,7.647-.159-.161-.339.357-.4,1.291A15.8,15.8,0,0,0,331.262,181.33Z" transform="translate(-285.462 -42.151)" opacity="0.5" fill="url(#linear-gradient)" style="mix-blend-mode: multiply;isolation: isolate"/>
      <g id="Group_11846" data-name="Group 11846" transform="translate(0 0.001)">
        <path id="Path_30470" data-name="Path 30470" d="M297.956,83.032c.012-.079.044-.173.071-.288h0a5.591,5.591,0,0,1,.535-1.3h0a3.846,3.846,0,0,1,3.111-2.015h0L301.4,76.95a6.431,6.431,0,0,0-5,3.25h0a8.135,8.135,0,0,0-.871,2.271h0l-.012.03h0a.87.87,0,0,0-.034.143h0a.7.7,0,0,0-.018.117h0c-.008.058-.012.117-.022.2h0l-.006.095,0,.042,0,.042h0v.01h0c0,.052,0,.109.006.163h0c-.192,2.755-1.4,17.929-2.586,32.844h0c-1.305,16.4-2.618,32.666-2.62,32.7h0l2.493.2c0-.052,5-62.249,5.233-66.023Z" transform="translate(-281.931 -9.777)" fill="#a7b9ce"/>
        <path id="Path_30471" data-name="Path 30471" d="M325.224,149.363c0-.063-4.783-59.788-5.2-65.537h0a1.1,1.1,0,0,0,.012-.167h0a1.293,1.293,0,0,0-.032-.276h0l0-.028h0l0-.069h0c-.008-.046-.012-.1-.024-.153h0a.3.3,0,0,0-.032-.115h0a8.057,8.057,0,0,0-.884-2.308h0a6.411,6.411,0,0,0-5.009-3.242h0l-.276,2.473a4.307,4.307,0,0,1,3.74,3.693h0c.295,4.531,5.213,65.881,5.213,65.93h0l2.493-.2Z" transform="translate(-257.978 -9.25)" fill="#a7b9ce"/>
        <g id="Group_11838" data-name="Group 11838" transform="translate(4.605 28.359)">
          <path id="Path_30472" data-name="Path 30472" d="M295.768,97.156c1.039-7.028.26-20.817-1.305-26.278s.26-9.108.26-9.108c2.792-3.936,15.1-4.351,24.4-3.932,9.291-.42,21.6,0,24.39,3.932,0,0,1.819,3.641.26,9.108s-2.344,19.25-1.3,26.278,6.245,14.046,4.422,16.65c-.97,1.386-11.014,2.035-20.154,2.342H311.5c-9.138-.307-19.184-.956-20.162-2.342C289.524,111.2,294.723,104.178,295.768,97.156Z" transform="translate(-285.797 -57.708)" fill="#b0c4d6"/>
          <path id="Path_30473" data-name="Path 30473" d="M355.344,92.485a7.378,7.378,0,0,1-2.86,4.68c-3.379,0-61.143.26-62.18-.524s-1.557-3.119-1.824-4.94,0-7.02,2.346-7.538a33.831,33.831,0,0,1,8.492-.357c2.6.18,46.315-.173,46.315-.173s6.836-.781,8.5,1.918A11.936,11.936,0,0,1,355.344,92.485Z" transform="translate(-288.399 -31.446)" fill="#a7b9ce"/>
          <path id="Path_30474" data-name="Path 30474" d="M353.979,86.58a5.217,5.217,0,0,0-4.944-2.727c-1.3.258-56.453-.914-58.017-.137s-2.469,1.567-2.082,1.959c1.517,1.517,23.028.65,33.171.906S353.979,86.58,353.979,86.58Z" transform="translate(-287.944 -31.529)" fill="#c5d0dd"/>
        </g>
        <path id="Path_30475" data-name="Path 30475" d="M302.006,51.067c-10.064-2.814-5.009,21.7-1.931,31a15.429,15.429,0,0,1-1.416,12.912c.444,2.477,4.4.176,4.4.176,11.74-29.618.488-42.125-.149-43.422S302.006,51.067,302.006,51.067Z" transform="translate(-276.015 -36.332)" fill="#380f01"/>
        <path id="Path_30476" data-name="Path 30476" d="M312.043,77.127,297.965,66.666s5.108-.686,4.1-14.147l4.9,3.363v0l.024,0,.032-.006v0l4.968.107c-1.854,9.648,2.7,9.438,2.7,9.438Z" transform="translate(-274.063 -34.628)" fill="#d8a798"/>
        <path id="Path_30477" data-name="Path 30477" d="M307.026,55.521l0-.01.02.01.022-.01,0,.01,4.391.1c.014.337.494,1.86.724,3.28-1.053,1.65-10.209,11.736-12.323,11.956-.736.083-2.417-3.476-1.2-4.767a13.142,13.142,0,0,0,3.211-7.8c.077-.841.048-4.2.012-5.531Z" transform="translate(-273.79 -34.377)" fill="url(#linear-gradient-2)" style="mix-blend-mode: multiply;isolation: isolate"/>
        <path id="Path_30478" data-name="Path 30478" d="M289.245,157.164c0-3.474,2.461-58.819,3.379-66.953h0c.385-3.627.365-7.2.958-9.588h0c.748-2.417,1.208-3.2,3.724-3.326h0c6.288,0,9.1,1.212,14.173,2.548h0l.8-3.018c-4.811-1.269-8.238-2.667-14.972-2.661h0c-3.917-.119-6.179,2.735-6.756,5.717h0c-.72,3.012-.652,6.594-1.037,9.983h0c-.94,8.537-3.385,63.483-3.389,67.3h3.121Z" transform="translate(-286.116 -12.611)" fill="#c5d0dd"/>
        <path id="Path_30479" data-name="Path 30479" d="M337.266,157.16c-.006-3.815-2.447-58.753-3.391-67.3h0c-.383-3.389-.311-6.971-1.033-9.983h0c-.569-2.981-2.838-5.84-6.76-5.709h0c-6.729-.014-10.159,1.39-14.97,2.653h0l.795,3.018c5.081-1.341,7.893-2.544,14.175-2.554h0c2.513.129,2.975.916,3.724,3.332h0c.6,2.386.569,5.957.968,9.588h0c.912,8.145,3.383,63.479,3.373,66.953h3.119Z" transform="translate(-260.689 -12.608)" fill="#c5d0dd"/>
        <path id="Path_30480" data-name="Path 30480" d="M301.191,78.639c-5.755,4.682-7.3,10.721-6.715,13.951.43,2.334,1.446,10.709,1.446,11.579,0,2.431,30.429,3.252,33.126,2.088,1.126-.48-.88-9.6,1.319-11.417,1.688-1.386,1.741-1.134,2.056-1.287,8.323-3.988-3.788-15.782-7.072-16.876C322.051,75.563,301.191,78.639,301.191,78.639Z" transform="translate(-277.729 -10.302)" fill="#151823"/>
        <path id="Path_30481" data-name="Path 30481" d="M302,59.048a14.5,14.5,0,0,0,8.277,5.3c2.977-.706,6.959-3.1,7.891-6.239,0,0,4.517,4.018,7.992,3.843-4.166,9.279-1.214,25.12,2.185,29.877,3,4.188,1.819,6.275,1.819,6.275l-8.922.133L308.45,95.741s-7.09,3.048-6.06-.373c1.051-3.427-6.171-27.894-8.5-29.979Z" transform="translate(-278.212 -28.945)" fill="#fff"/>
        <path id="Path_30482" data-name="Path 30482" d="M302.828,58.5c-3.647,1.941-8.952,2.019-9.864,3.056,0,0,2.413,14.645,3.135,16.283.3.69.547,3.633,1.446,5.791,1.245,2.957,2.231,6.935,2.052,8.882-.3,3.355-5.093,9.912-4.182,14.465.26,1.3,1.928-5.622,10.937-7.393,3.361-.662,13.281,2.451,12.914.311s-7.934-18.558-7.934-18.558-5.063-10.61-6.348-13.828A74.052,74.052,0,0,1,302.828,58.5Z" transform="translate(-279.15 -28.548)" fill="#282a35"/>
        <path id="Path_30483" data-name="Path 30483" d="M301.758,57.7l-5.467,2.57.244,4.438,2.86-.781-1.644,2.778a21.188,21.188,0,0,0,4.329,8.521c1.438,1.735,7.807,12.9,7.807,12.9s-2.85-9.436-5.071-13.7a41.114,41.114,0,0,1-3.861-12.7A5.9,5.9,0,0,1,301.758,57.7Z" transform="translate(-275.766 -29.357)" fill="#151823"/>
        <path id="Path_30484" data-name="Path 30484" d="M312.531,58.158c6.07,2.778,8.434,2.336,9.644,3.018,0,0,1.146,18.387,1.019,20.174s-3.058,6.2-1.662,9.249c1.414,3.068,8.323,12.918,8.2,19.944-.026,1.327-4.589-8.64-12.763-9.559-3.413-.385-13.769.238-13.769-.579,0-4.839.02-6.144-1.608-18.49,0,0,7.419-15.946,8.341-18.3A55.949,55.949,0,0,1,312.531,58.158Z" transform="translate(-270.374 -28.892)" fill="#151823"/>
        <path id="Path_30485" data-name="Path 30485" d="M309.067,57.383,314.822,60l.1,4.349-3.615-.315,1.85,4.042s-1.089.351-4.577,5.059c-1.339,1.84-6.913,11.5-6.913,11.5a22.493,22.493,0,0,1,2.172-8.123c1.162-2.509,3.9-7.454,5.126-12.218A12.585,12.585,0,0,0,309.067,57.383Z" transform="translate(-270.292 -29.68)" fill="#282a35"/>
        <path id="Path_30486" data-name="Path 30486" d="M318.119,81.99c-.153.173-6.973.161-7.161.321-1.477,1.122-3.861,1.408-5.319,1.624-2.015.29-1.311.077-3.058,1.138-1.719,1.047-2.1,1.1-2.352.847-.288-.3.819-.966,1.711-1.751.863-.773,3.074-1.628,2.632-1.648s-4.23,2.354-4.827,2.64c-.621.274-2.13.621-1.6.014s3.615-2.753,4.095-3.133c.5-.383-4.04,2.415-4.436,2.554-.484.18-.577-.347.171-.966.494-.452,3.748-2.778,4.1-3.016a11.631,11.631,0,0,0-1.668.73c-.829.466-1.13.664-1.592.924-.855.5-1.727.432-.716-.385A22.5,22.5,0,0,1,299.93,80.3a18.487,18.487,0,0,1,2.889-1.049c.472-.117,5.721-.758,7.02-1.021,3.835-.748,6.223-.948,6.792-1.033Z" transform="translate(-274.612 -9.53)" fill="#d8a798"/>
        <path id="Path_30487" data-name="Path 30487" d="M308.105,76.657l-3.436,1.521,1.645,6.156,3.38.007-1.442-6.892Z" transform="translate(-267.243 -10.075)" fill="#fff"/>
        <path id="Path_30488" data-name="Path 30488" d="M317.2,59.574c2.536-.541,4.464,1.45,5.787,9.89,1.027,6.532,4.894,21.963,3.619,24.364-2.215,4.157-16.753,10.009-19.135,9.481a59.151,59.151,0,0,1-1.928-7.873l11.038-4.387c.377-1.275-1.1-12.775-.258-15.609C316.816,73.779,317.2,59.574,317.2,59.574Z" transform="translate(-266.36 -27.536)" fill="#151823"/>
        <path id="Path_30489" data-name="Path 30489" d="M292.818,76.973c.137.188,6.939.734,7.115.9,1.37,1.239,3.73,1.721,5.162,2.054,1.989.454,1.309.184,2.951,1.378s2.013,1.269,2.281,1.045c.309-.284-.732-1.031-1.565-1.884-.8-.845-2.929-1.88-2.487-1.858s4.02,2.689,4.593,3.016c.6.339,2.076.8,1.6.147s-3.373-3.042-3.823-3.453,3.835,2.739,4.208,2.9c.476.22.609-.288-.083-.974-.46-.478-3.512-3.072-3.841-3.336a11.77,11.77,0,0,1,1.6.859c.791.539,1.073.756,1.513,1.061.8.571,1.686.571.744-.333a23.019,23.019,0,0,0-1.7-1.731,17.774,17.774,0,0,0-2.8-1.277c-.456-.161-5.632-1.224-6.9-1.594-3.768-1.057-6.13-1.458-6.691-1.583Z" transform="translate(-279.299 -14.491)" fill="#d8a798"/>
        <path id="Path_30490" data-name="Path 30490" d="M297.54,72.734l1.773.522-1.275,6.955-3.146-.294,2.267-6.671Z" transform="translate(-277.188 -14.065)" fill="#fff"/>
        <path id="Path_30491" data-name="Path 30491" d="M299.354,60.012c-1.686-1.606-3.23,1.787-5.9,8.361-2.864,7.02-7.282,19.379-5.549,21.469s11.914,6.328,14.348,6.509c.545-2.2,2.229-5.569,3.379-10.368L296.7,84.051c0-1.327,2.576-2.509,5.307-6.152C303.049,76.513,299.354,60.012,299.354,60.012Z" transform="translate(-284.699 -27.407)" fill="#151823"/>
        <path id="Path_30492" data-name="Path 30492" d="M315.59,64.641c0,3.474.871,15.091.26,18.736-.1.617-10.538,5.854-10.538,5.854l1.368,3.833s12.6-5.916,13.465-6.957a1.718,1.718,0,0,0,.067-2.1l1.21-.863-2.776-.611,2.433-.087-2.086-1.822Z" transform="translate(-266.59 -22.297)" fill="#282a35"/>
        <g id="Group_11840" data-name="Group 11840" transform="translate(18.667 76.794)">
          <path id="Path_30493" data-name="Path 30493" d="M299.535,82.255c8.732-2.61,7.224,4.942,9.689,9.112,8.769,14.792,4.642,38.944,9.37,48.985,1.912,4.046,2.943,6.411,2.778,8.117a3.361,3.361,0,0,1-3.224,3.076c-4.8.04-4.771-2.225-5.239-7.179a49.992,49.992,0,0,0-1.015-6.259c-2.015-10.181-14.128-28.777-13.868-37.485.258-8.724-1.765-5.231-2.57-11.076C294.668,83.71,299.535,82.255,299.535,82.255Z" transform="translate(-295.37 -81.719)" fill="#d8a798"/>
          <g id="Group_11839" data-name="Group 11839" transform="translate(7.564 0.369)">
            <path id="Path_30494" data-name="Path 30494" d="M305.585,91.526c8.773,14.8,4.644,38.944,9.372,48.994.53,1.124.992,2.118,1.384,3.014.032,1.521.064,3.012.123,4.21-1.021-2.9-3.568-7.205-4.976-9.9-1.9-3.647-3.645-28.62-4.861-33.649s-3.99-8.581-3.815-10.84c.175-2.231,0-9.4-3.691-11.452C304.242,81.991,303.483,87.972,305.585,91.526Z" transform="translate(-299.12 -81.902)" fill="#cc9483"/>
          </g>
          <path id="Path_30495" data-name="Path 30495" d="M304.3,114.3c1.993,2.774,6.727,2.86,7.879-1.539,3.092,7.016-.472,10-2.413,9.854a7,7,0,0,1-5.44-4.787C303.781,115.559,303.969,113.838,304.3,114.3Z" transform="translate(-286.609 -50.144)" fill="#151823"/>
        </g>
        <g id="Group_11843" data-name="Group 11843" transform="translate(32.865 76.711)">
          <g id="Group_11841" data-name="Group 11841">
            <path id="Path_30496" data-name="Path 30496" d="M307.091,81.8c8.375-1.1,6.78,5.529,8.892,9.884,7.5,15.492,1.664,38.871,5.535,49.28,3.524,9.463,2.265,9.757-.99,10.621-2.681.7-5.075.319-5.4-4.644-.161-2.427-.668-5.82-.873-8.823-.635-9.428-9.84-30.49-9.84-39.194,0-6.639-1.676-4.311-1.989-10.2C302.123,82.84,307.091,81.8,307.091,81.8Z" transform="translate(-302.409 -81.678)" fill="#d8a798"/>
          </g>
          <g id="Group_11842" data-name="Group 11842" transform="translate(6.904 0.016)">
            <path id="Path_30497" data-name="Path 30497" d="M312.5,91.849c7.5,15.486,1.664,38.873,5.535,49.28a37.966,37.966,0,0,1,2.009,6.635c-.791,1.561-1.339,2.614-1.339,2.614s-2.947-9.015-3.643-11.1S314.2,124.709,313.5,111s-3.121-14.395-3.641-16.821.823-9.8-4.032-12.4l.222-.093C311.727,82,310.612,87.949,312.5,91.849Z" transform="translate(-305.831 -81.686)" fill="#cc9483"/>
          </g>
          <path id="Path_30498" data-name="Path 30498" d="M308.872,113.912c1.807,2.9,6.53,3.3,7.97-1.025,2.624,7.213-1.13,9.957-3.054,9.682a7,7,0,0,1-5.116-5.142C308.275,115.138,308.577,113.43,308.872,113.912Z" transform="translate(-296.231 -49.933)" fill="#151823"/>
        </g>
        <g id="Group_11844" data-name="Group 11844" transform="translate(25.81 1.17)">
          <path id="Path_30499" data-name="Path 30499" d="M299.129,58.036c.728,6.382,5.854,11.671,10.1,11.117,2.941-.391,5.925-4.24,7.391-12.371,1.212-6.689-.916-12.458-9.392-12.551C299.248,44.152,298.372,51.351,299.129,58.036Z" transform="translate(-298.911 -44.23)" fill="#d8a798"/>
        </g>
        <g id="Group_11845" data-name="Group 11845" transform="translate(22.662)">
          <path id="Path_30500" data-name="Path 30500" d="M303.367,51.665c3.71-2.421,11.272.92,11.78,3.764,1.565-3.2-1.463-10.447-6.548-11.3-6-.988-7.645-.45-7.8,1.529C300.624,48.229,303.367,51.665,303.367,51.665Z" transform="translate(-293.847 -43.65)" fill="#380f01"/>
          <path id="Path_30501" data-name="Path 30501" d="M304.347,44.433c-2.745-.912-9.215,3.712-6.225,13.771,1.708,5.727,4.6,6.772,4.6,6.772l.05-8.7L307.29,50.5Z" transform="translate(-297.35 -42.968)" fill="#380f01"/>
          <path id="Path_30502" data-name="Path 30502" d="M301.876,50.261c-.766-.5-2.152-1.045-2.364-.016s-.131,4.531,1.071,4.861S301.876,50.261,301.876,50.261Z" transform="translate(-295.242 -37.536)" fill="#dbab9c"/>
          <path id="Path_30503" data-name="Path 30503" d="M304.739,46.756c-1.122-.244-4.337,5.787-4.5,6.348s-.559.163-.559.163,2.969-6.592,4.339-7.238S304.739,46.756,304.739,46.756Z" transform="translate(-294.981 -41.404)" fill="#5b250e"/>
          <path id="Path_30504" data-name="Path 30504" d="M302.9,47.3c1.692-.884,10.376-.724,10.7,4.906.565-1.124-.325-3.859-3.54-5.225s-7.238-.807-7.476-.405S302.9,47.3,302.9,47.3Z" transform="translate(-292.093 -41.145)" fill="#5b250e"/>
          <path id="Path_30505" data-name="Path 30505" d="M302.551,47.451c.561-.643,8.486-3.2,11.559,4.04,0,0-2.392-6.927-8.26-6.366a5.816,5.816,0,0,0-3.619,1.682Z" transform="translate(-292.387 -42.181)" fill="#5b250e"/>
          <path id="Path_30506" data-name="Path 30506" d="M304.995,46.807c-.966.119-4.7,6.332-4.7,6.332l-.3-.182s4.1-6.514,4.706-6.574S304.995,46.807,304.995,46.807Z" transform="translate(-294.667 -40.874)" fill="#5b250e"/>
        </g>
      </g>
    </g>
  </g>
</svg>
